<?xml version="1.0" encoding="UTF-8"?>
<svg viewBox="0 0 533.7 666.9" xmlns="http://www.w3.org/2000/svg">
<path d="M60.7 196.9a32.5 32.5 0 010-65v1a31.5 31.5 0 000 63h.4v1zM247.9 378.3a43.7 43.7 0 1143.7-43.7 43.74 43.74 0 01-43.7 43.7zm0-86.5a42.7 42.7 0 1042.7 42.7 42.74 42.74 0 00-42.7-42.7zM274.4 100.5a25.2 25.2 0 1125.2-25.2 25.22 25.22 0 01-25.2 25.2zm0-49.4a24.2 24.2 0 1024.2 24.2 24.28 24.28 0 00-24.2-24.2zM10.5 275.5h-1v200h1zM15.2 275.1h-1v200h1zM19.9 275.8h-1v200h1zM57.8 473.2v-67.8l-2.2-2.2v72.1h69.7s-.8-.8-2.1-2.2H57.8z" fill="#ffd2bd"/>
<path d="m62.9 467.4v-56.8c-1.6-1.6-3-3.1-4.1-4.2v65.8h63.4c-1.2-1.3-2.8-2.9-4.6-4.8z" fill="#ffd2bd"/>
<path d="M112.3 461.8H68.7v-45.2c-1.7-1.8-3.3-3.4-4.7-4.9v54.7h52.8c-1.4-1.4-2.9-3-4.5-4.6z" fill="#ffd2bd"/>
<path d="M69.7 417.6v43.2h41.6c-12.1-12.6-29.5-30.7-41.6-43.2zM45.1 354.1a.76.76 0 01.5.2h.1v-22h-1v21.9a.76.76 0 01.4-.1zM45.4 358.6H45c-.1 0-.2 0-.2-.1V470h1V358.4c-.2.1-.3.1-.4.2z" fill="#ffd2bd"/>
<path d="m48.2 358.9h-5.8v-5.3h5.8zm-4.9-1h3.8v-3.3h-3.8z" fill="#ffd2bd"/>
<path d="M46.7 354h-.5v4.4h.5zM45.3 354.2h-.5v4.4h.5zM51.5 376.2h-.7v93.9h1v-93.9c-.1-.1-.2 0-.3 0zM51.3 371.6a.9.9 0 01.5.1v-39.4h-1v39.4a.9.9 0 01.5-.1z" fill="#ffd2bd"/>
<path d="m54.3 376.5h-5.8v-5.3h5.8zm-4.9-1h3.8v-3.3h-3.8z" fill="#ffd2bd"/>
<path d="m52.8 371.6h-0.5v4.4h0.5zm-1.4 0.2h-0.5v4.4h0.5zm-11.1 12.4h-9.6v-9.6h9.6zm-8.5-1h7.6v-7.6h-7.6zm8.5 15.3h-9.6v-9.6h9.6zm-8.5-1h7.6v-7.6h-7.6zm8.1 6.1h-8.6v8.6h8.6zm0.4 23.4h-9.6v-9.6h9.6zm-8.5-1h7.6v-7.6h-7.6zm8.1 6.2h-8.6v8.6h8.6zm0.4 23.3h-9.6v-9.6h9.6zm-8.5-1h7.6v-7.6h-7.6zm8.5 15.3h-9.6v-9.6h9.6zm-8.5-1h7.6v-7.6h-7.6zm8.5-127.4h-9.6v-9.6h9.6zm-8.5-1h7.6v-7.6h-7.6zm8.5 15.2h-9.6v-9.6h9.6zm-8.5-1h7.6v-7.6h-7.6zm8.1 6.2h-8.6v8.6h8.6zm481.8 284.4-7.5-12.9h14.9zm-5.8-11.9 5.7 9.9 5.7-9.9zm13.2-248.4h-14.9l7.5-12.9zm-13.2-1h11.4l-5.7-9.9zm5.8 63.5a6 6 0 0 1-6-6v-29.7a6 6 0 0 1 12 0v29.7a6 6 0 0 1-6 6zm0-40.8a5 5 0 0 0-5 5v29.7a5 5 0 0 0 5 5 5.08 5.08 0 0 0 5-5v-29.7a5.08 5.08 0 0 0-5-5zm-483.6-89.9h-12.6v1h12.6zm0-3h-12.6v1h12.6zm0-3h-12.6v1h12.6zm135.6-114.4h-111.8v1h111.8zm0.1 4.6h-112.8v1h112.8zm-0.3 4.7h-111.8v1h111.8zm24.7-9.5h-2v1h2zm0 4.6h-2v1h2zm0 4.7h-2v1h2zm3.5-9.3h-2v1h2zm0 4.6h-2v1h2zm0 4.7h-2v1h2zm3.5-9.3h-2v1h2zm0 4.6h-2v1h2zm0 4.7h-2v1h2zm3.5-9.3h-2v1h2zm0 4.6h-2v1h2zm0 4.7h-2v1h2zm3.5-9.3h-2v1h2zm0 4.6h-2v1h2zm0 4.7h-2v1h2zm3.5-9.3h-2v1h2zm0 4.6h-2v1h2zm0 4.7h-2v1h2zm3.6-9.3h-2v1h2zm0 4.6h-2v1h2zm0 4.7h-2v1h2zm3.5-9.3h-2v1h2zm0 4.6h-2v1h2zm0 4.7h-2v1h2zm3.5-9.3h-2v1h2zm0 4.6h-2v1h2zm0 4.7h-2v1h2zm3.5-9.3h-2v1h2zm0 4.6h-2v1h2zm0 4.7h-2v1h2zm3.7-9.4h-2v1h2zm0 4.7h-2v1h2zm0 4.6h-2v1h2zm3.5-9.3h-2v1h2zm0 4.7h-2v1h2zm0 4.6h-2v1h2zm3.5-9.3h-2v1h2zm0 4.7h-2v1h2zm0 4.6h-2v1h2zm3.5-9.3h-2v1h2zm0 4.7h-2v1h2zm0 4.6h-2v1h2zm3.5-9.3h-2v1h2zm0.1 4.7h-2v1h2zm-0.1 4.6h-2v1h2zm3.6-9.3h-2v1h2zm0 4.7h-2v1h2zm0 4.6h-2v1h2zm3.5-9.3h-2v1h2zm0 4.7h-2v1h2zm0 4.6h-2v1h2zm3.5-9.3h-2v1h2zm0 4.7h-2v1h2zm0 4.6h-2v1h2zm3.5-9.3h-2v1h2zm0 4.7h-2v1h2zm0 4.6h-2v1h2zm3.5-9.3h-2v1h2zm0 4.7h-2v1h2zm0 4.6h-2v1h2zm0 39.9h-69.6v1h69.6z" fill="#ffd2bd"/>
<path d="M209.3 239.8h-1v11.8h1zM220.4 239.8h-1v11.8h1zM231.6 239.8h-1v11.8h1zM242.7 239.8h-1v11.8h1zM253.9 239.8h-1v11.8h1zM208.7 237.9a3.8 3.8 0 113.8-3.8 3.8 3.8 0 01-3.8 3.8zm0-7a3.3 3.3 0 103.3 3.3 3.33 3.33 0 00-3.3-3.3zM219.9 237.9a3.8 3.8 0 113.8-3.8 3.8 3.8 0 01-3.8 3.8zm0-7a3.3 3.3 0 103.3 3.3 3.33 3.33 0 00-3.3-3.3zM231.1 237.9a3.8 3.8 0 113.8-3.8 3.86 3.86 0 01-3.8 3.8zm0-7a3.3 3.3 0 103.3 3.3 3.33 3.33 0 00-3.3-3.3zM242.2 237.9a3.8 3.8 0 113.8-3.8 3.8 3.8 0 01-3.8 3.8zm0-7a3.3 3.3 0 103.3 3.3 3.33 3.33 0 00-3.3-3.3zM253.4 237.9a3.8 3.8 0 113.8-3.8 3.86 3.86 0 01-3.8 3.8zm0-7a3.3 3.3 0 103.3 3.3 3.33 3.33 0 00-3.3-3.3zM208.8 261a3.8 3.8 0 113.8-3.8 3.8 3.8 0 01-3.8 3.8zm0-7a3.3 3.3 0 103.3 3.3 3.33 3.33 0 00-3.3-3.3zM219.9 261a3.8 3.8 0 113.8-3.8 3.8 3.8 0 01-3.8 3.8zm0-7a3.3 3.3 0 103.3 3.3 3.33 3.33 0 00-3.3-3.3zM231.1 261a3.8 3.8 0 113.8-3.8 3.8 3.8 0 01-3.8 3.8zm0-7a3.3 3.3 0 103.3 3.3 3.33 3.33 0 00-3.3-3.3zM242.3 261a3.8 3.8 0 113.8-3.8 3.86 3.86 0 01-3.8 3.8zm0-7a3.3 3.3 0 103.3 3.3 3.33 3.33 0 00-3.3-3.3zM253.4 261a3.8 3.8 0 113.8-3.8 3.8 3.8 0 01-3.8 3.8zm0-7a3.3 3.3 0 103.3 3.3 3.33 3.33 0 00-3.3-3.3z" fill="#ffd2bd"/>
<path d="M208.6 232.7h.4v2.4h.8v.4h-2v-.4h.8v-1.6h-.8v-.4h.8v-.4zM219 232.7h1.6v.4H219zm1.6 2.4v.4H219v-.4zm0-1.2v.4h-1.2v-.4zm0-.8h.4v.8h-.4zm0 1.2h.4v.8h-.4zM230.2 232.7h2v.4h-1.6v.4h1.2v.4h-1.6zm.4 2.4h-.4v-.4h.4zm1.2 0v.4h-1.2v-.4zm0-1.2h.4v1.2h-.4zM241.5 232.6h2v1.2h-.4v-.8h-1.2v.4h-.4zm.8 2v.8h-.4v-.8zm.4-.4v.4h-.4v-.4zm.4-.4v.4h-.4v-.4zM253.2 233.8h-.4v-.8h.4zm0-1.2h1.2v.4h-1.2zm1.2.4h.4v1.6h-.4v-.4h-1.2v-.4h1.2zm-.4 2v.4h-.8v-.4zm.4-.4v.4h-.4v-.4zM208.2 256.3v.4h-.4v-.4zm.4 1.6v.4h1.2v.4h-2v-.4h.4v-.4zm-.4-2h1.2v.4h-1.2zm.8 1.6v.4h-.4v-.4zm.4-.4v.4h-.4v-.4zm0-.8h.4v.8h-.4zM220.2 255.9h.4v1.6h.4v.4h-.4v.8h-.4v-.8H219v-.8h.4v.4h.8v-.8h-.4v-.4h.4v-.4zm-.8 1.2v-.4h.4v.4zM230.6 256.3v.8h1.2v.4h-1.2v.8h-.4v-2zm0-.4h1.2v.4h-1.2zm1.2 2.3v.4h-1.2v-.4zm0-1.9h.4v.4h-.4zm0 1.2h.4v.8h-.4zM241.8 257.1h-.4v-.8h.4zm0 1.1h-.4v-.8h.4zm0-2.3h1.2v.4h-1.2zm1.2 1.2v.4h-1.2v-.4zm0 1.1v.4h-1.2v-.4zm0-1.9h.4v.8h-.4zm0 1.2h.4v.8h-.4zM253.1 258.2h-.4v-2h.4zm0-2.3h1.2v.4h-1.2zm1.1 2.3v.4H253v-.4zm-.8-1.5h.4v1.2h-.4zm.8-.4h.4v2h-.4zM247.9 371.2a36.62 36.62 0 01-36.6-36.6h1a35.6 35.6 0 1035.6-35.6v-1a36.6 36.6 0 010 73.2z" fill="#ffd2bd"/>
<path d="M247.9 364.5a30 30 0 1130-30 30.09 30.09 0 01-30 30zm0-58.9a29 29 0 1029 29 29 29 0 00-29-29z" fill="#ffd2bd"/>
<path d="M247.9 357.3a22.8 22.8 0 1122.8-22.8 22.79 22.79 0 01-22.8 22.8zm0-44.5a21.8 21.8 0 1021.8 21.8 21.85 21.85 0 00-21.8-21.8z" fill="#ffd2bd"/>
<path d="m248.4 291.5h-1v86h1z" fill="#ffd2bd"/>
<path d="M278.28 303.47l-30.95 30.28.7.71 31-30.28z" fill="#ffd2bd"/>
<path d="M278.3 365.3l-30.5-30.4-30.4 30.4-.7-.7 31.1-31.1 31.2 31.1zM246.6 299.9a1.3 1.3 0 111.3-1.3 1.32 1.32 0 01-1.3 1.3zm0-2.1a.8.8 0 10.8.8.79.79 0 00-.8-.8zM243.5 300a1.3 1.3 0 01-1.3-1.2 1.32 1.32 0 011.2-1.4 1.4 1.4 0 01.9.3 1.35 1.35 0 01.5.9 1.4 1.4 0 01-.3.9 1.35 1.35 0 01-.9.5zm0-2.1a.82.82 0 00-.8.9.75.75 0 00.9.7.55.55 0 00.5-.3 1.42 1.42 0 00.2-.6.55.55 0 00-.3-.5.76.76 0 00-.5-.2zM240.5 300.4a1.29 1.29 0 01-1.3-1.1 1.27 1.27 0 112.5-.5 1.23 1.23 0 01-.2 1 1 1 0 01-.8.5c0 .1-.1.1-.2.1zm0-2.1h-.1a.76.76 0 00.3 1.5.85.85 0 00.5-.3.66.66 0 00.1-.6.85.85 0 00-.3-.5c-.2 0-.3-.1-.5-.1zM237.6 301a1.19 1.19 0 01-1.2-1 1.73 1.73 0 01.1-1 1.56 1.56 0 01.8-.6 1.73 1.73 0 011 .1 1.56 1.56 0 01.6.8 1.28 1.28 0 01-.9 1.6.76.76 0 01-.4.1zm0-2h-.2a1 1 0 00-.5.4 1.27 1.27 0 00-.1.6.82.82 0 001.6-.4 1 1 0 00-.4-.5.76.76 0 00-.4-.1zM234.7 302a1.3 1.3 0 01-1.2-.8 1.33 1.33 0 111.7.8c-.2-.1-.4 0-.5 0zm0-2.1h-.3a.79.79 0 101 .5.75.75 0 00-.7-.5zM231.9 303.1a1.39 1.39 0 01-1.2-.7 1.27 1.27 0 112.3-1.1 1.17 1.17 0 010 1 1.21 1.21 0 01-.7.7.6.6 0 01-.4.1zm0-2.1a.37.37 0 00-.3.1.83.83 0 00.7 1.5.78.78 0 00.4-.4.64.64 0 000-.6.78.78 0 00-.4-.4 1.09 1.09 0 01-.4-.2zM229.2 304.5h-.3a1.56 1.56 0 01-.8-.6 1.15 1.15 0 01-.1-1 1.56 1.56 0 01.6-.8 1.15 1.15 0 011-.1 1.56 1.56 0 01.8.6 1.15 1.15 0 01.1 1 1.56 1.56 0 01-.6.8 2 2 0 01-.7.1zm0-2.1a.6.6 0 00-.4.1 1 1 0 00-.4.5.66.66 0 00.1.6 1 1 0 00.5.4.66.66 0 00.6-.1 1 1 0 00.4-.5.66.66 0 00-.1-.6 1 1 0 00-.5-.4zM226.6 306.2h-.2a1.37 1.37 0 01-.8-.5 1.16 1.16 0 01-.2-1 1.13 1.13 0 01.5-.8 1.29 1.29 0 111.5 2.1 2.35 2.35 0 01-.8.2zm0-2.1a.9.9 0 00-.5.1.55.55 0 00-.3.5 1.27 1.27 0 00.1.6.55.55 0 00.5.3 1.27 1.27 0 00.6-.1c.4-.2.4-.7.2-1.1a.71.71 0 00-.6-.3zM224.2 308a1.39 1.39 0 01-1-.5 1.61 1.61 0 01-.3-.9 1.19 1.19 0 01.5-.9 1.61 1.61 0 01.9-.3 1.3 1.3 0 01.7 2.3 1.14 1.14 0 01-.8.3zm0-2.1a.76.76 0 00-.5.2.55.55 0 00-.3.5.73.73 0 00.2.6.78.78 0 101.2-1 .6.6 0 00-.6-.3zM221.9 310.1a1.09 1.09 0 01-.9-.4 1.21 1.21 0 11.9.4zm0-2.1a1.42 1.42 0 00-.6.2.78.78 0 101.1 0c0-.1-.2-.2-.5-.2zM219.9 312.3a1.14 1.14 0 01-.8-.3 1.35 1.35 0 01-.5-.9 1.4 1.4 0 01.3-.9 1.93 1.93 0 01.9-.5 1.4 1.4 0 01.9.3 1.35 1.35 0 01.5.9.92.92 0 01-.3.9 1.39 1.39 0 01-1 .5zm0-2.1a.6.6 0 00-.6.3 1.42 1.42 0 00-.2.6.55.55 0 00.3.5.79.79 0 001.1-.1 1.42 1.42 0 00.2-.6.55.55 0 00-.3-.5.76.76 0 00-.5-.2zM218 314.7a1.45 1.45 0 01-.7-.2 1 1 0 01-.5-.8 1.23 1.23 0 01.2-1 1 1 0 01.8-.5 1.23 1.23 0 011 .2 1.28 1.28 0 01.3 1.8 1.61 1.61 0 01-1.1.5zm0-2.1h-.1a.85.85 0 00-.5.3.61.61 0 00-.1.6.85.85 0 00.3.5c.4.2.9.2 1.1-.2s.2-.9-.2-1.1a4.33 4.33 0 00-.5-.1zM216.4 317.3a1.42 1.42 0 01-.6-.2 1.56 1.56 0 01-.6-.8 1.73 1.73 0 01.1-1 1.56 1.56 0 01.8-.6 1.73 1.73 0 011 .1 1.41 1.41 0 01.5 1.8 1.56 1.56 0 01-.8.6.76.76 0 01-.4.1zm0-2.1h-.2a1 1 0 00-.5.4 1.27 1.27 0 00-.1.6 1 1 0 00.4.5 1.27 1.27 0 00.6.1 1 1 0 00.5-.4.8.8 0 00-.3-1.1.6.6 0 00-.4-.1zM215 320a.75.75 0 01-.5-.1 1.27 1.27 0 111.7-.6 1.39 1.39 0 01-1.2.7zm0-2.1a.75.75 0 00-.7.5.64.64 0 000 .6c.1.2.2.4.4.4a.84.84 0 001.1-.4.7.7 0 00-.4-1 .76.76 0 00-.4-.1zM213.8 322.8a.6.6 0 01-.4-.1 1.33 1.33 0 111.7-.8 1.42 1.42 0 01-1.3.9zm0-2.1a.75.75 0 00-.7.5.83.83 0 00.5 1 .75.75 0 001-.5.83.83 0 00-.5-1zM212.9 325.7h-.3a1.56 1.56 0 01-.8-.6 1.15 1.15 0 01-.1-1 1.56 1.56 0 01.6-.8 1.15 1.15 0 011-.1 1.28 1.28 0 01.9 1.6 1.42 1.42 0 01-1.3.9zm0-2.1a.6.6 0 00-.4.1 1 1 0 00-.4.5.82.82 0 101-.6zM212.3 328.6h-.2a1.27 1.27 0 11.5-2.5 1.37 1.37 0 01.8.5 1.16 1.16 0 01.2 1 1.37 1.37 0 01-.5.8 1.34 1.34 0 01-.8.2zm0-2a.85.85 0 00-.8.7.78.78 0 00.6.9 1.27 1.27 0 00.6-.1.55.55 0 00.3-.5 1.27 1.27 0 00-.1-.6.55.55 0 00-.5-.3.1.1 0 00-.1-.1zM211.9 331.7h-.1a1.4 1.4 0 01-1.2-1.4 1.19 1.19 0 01.5-.9 1.61 1.61 0 01.9-.3 1.19 1.19 0 01.9.5 1.61 1.61 0 01.3.9 1.19 1.19 0 01-.5.9 1.91 1.91 0 01-.8.3zm0-2.1a.76.76 0 00-.5.2.55.55 0 00-.3.5.73.73 0 00.2.6.55.55 0 00.5.3.73.73 0 00.6-.2.55.55 0 00.3-.5.73.73 0 00-.2-.6.71.71 0 00-.6-.3zM211.7 334.7a1.3 1.3 0 111.3-1.3 1.26 1.26 0 01-1.3 1.3zm0-2.1a.8.8 0 10.8.8.79.79 0 00-.8-.8z" fill="#ffd2bd"/>
<path d="M250.8 363.8l-.4-7.1h.5l.4 7.1zM253.5 363.7l-.9-7.1.5-.1.9 7.1zM255 356l-.48.12 1.72 6.89.48-.12zM256.8 355.3l-.47.16 2.41 6.69.47-.17zM261.2 361.2l-3-6.5.4-.2 3 6.4zM260.49 353.37l-.43.26 3.7 6.05.43-.26zM262.17 351.86l-.4.3 4.18 5.73.4-.29zM247.8 334.2L232.2 350l2.4 2.5 4.1 2.4 4.6 1.4 4.6.5zM406.5 365.8v-.4h.2a.2.2 0 110 .4z" fill="#ffd2bd"/>
<path d="M406.1 366.3l-.1-1.4.7-.1a.71.71 0 11.2 1.4zm.4-1a.31.31 0 00-.1.2.35.35 0 00.1.2z" fill="#ffd2bd"/>
<path d="M406.32 365.91v-.4h-.4v.4z" fill="#ffd2bd"/>
<path d="M406.67 364.87l-1.39.15.15 1.39 1.39-.15z" fill="#ffd2bd"/>
<path d="M405.6 365.91v-.4h-.39v.4z" fill="#ffd2bd"/>
<path d="M406 365l-1.4.14.15 1.4 1.39-.15z" fill="#ffd2bd"/>
<path d="M404.6 365.8a.22.22 0 01.2-.2h.2v.4h-.2a.22.22 0 01-.2-.2z" fill="#ffd2bd"/>
<path d="M404.8 366.4a.67.67 0 01-.7-.6c0-.2 0-.4.2-.5s.3-.2.5-.3l.7-.1.1 1.4zm.2-.7v.2c.1-.1.1-.1.1-.2zm-.1-.2v.2h.1c.1-.1 0-.2-.1-.2zM406.1 363.2l-.1-.4h.2c.1 0 .2 0 .2.2s0 .2-.2.2z" fill="#ffd2bd"/>
<path d="M405.8 363.8l-.3-1.4.7-.1a.75.75 0 01.5.1.54.54 0 01.3.4.69.69 0 01-.5.8zm.3-1a.37.37 0 00-.1.3.22.22 0 00.2.2z" fill="#ffd2bd"/>
<path d="M405.86 363.29l-.07-.4-.4.08.08.39z" fill="#ffd2bd"/>
<path d="M406.23 362.32l-1.38.27.27 1.37 1.37-.27z" fill="#ffd2bd"/>
<path d="M405.27 363.34l-.08-.39-.39.08.08.39z" fill="#ffd2bd"/>
<path d="M405.53 362.43l-1.38.27.27 1.37 1.37-.26z" fill="#ffd2bd"/>
<path d="M404.2 363.4c0-.1 0-.2.2-.2h.2l.1.4h-.2c-.2-.1-.3-.1-.3-.2z" fill="#ffd2bd"/>
<path d="M404.4 364a.6.6 0 01-.4-.1.54.54 0 01-.3-.4.75.75 0 01.1-.5.54.54 0 01.4-.3l.7-.1.3 1.4-.7.1a.1.1 0 00-.1-.1zm.2-.5c.1 0 .1-.1.1-.2a.35.35 0 00-.1-.2zM405.6 360.6l-.1-.4.2-.1c.1 0 .2 0 .2.1s0 .2-.1.2z" fill="#ffd2bd"/>
<path d="M405.2 361.2l-.4-1.3.7-.2a.73.73 0 01.4 1.4zm.2-1a.19.19 0 000 .3.22.22 0 00.2.2z" fill="#ffd2bd"/>
<path d="M405.33 360.69l-.11-.38-.38.11.11.38z" fill="#ffd2bd"/>
<path d="M405.63 359.7l-1.35.38.38 1.34L406 361z" fill="#ffd2bd"/>
<path d="M404.71 360.93l-.11-.38-.38.11.11.38z" fill="#ffd2bd"/>
<path d="M405 359.91l-1.35.38.39 1.35 1.34-.39z" fill="#ffd2bd"/>
<path d="M403.6 361c0-.1 0-.2.1-.2l.2-.1.1.4-.2.1c0-.1-.1-.1-.2-.2z" fill="#ffd2bd"/>
<path d="M403.8 361.6a.75.75 0 01-.7-.5.72.72 0 01.5-.9l.7-.2.4 1.3-.7.2c0 .1-.1.1-.2.1zm.3-.5c.1 0 .1-.1.1-.2a.22.22 0 00-.2-.2zM404.7 358.1l-.1-.4.2-.1c.1 0 .2 0 .2.1s0 .2-.1.2z" fill="#ffd2bd"/>
<path d="M404.5 358.8l-.5-1.3.6-.2c.4-.1.8 0 .9.4a.45.45 0 010 .5.78.78 0 01-.4.4zm.1-1.1v.3a.22.22 0 00.2.2z" fill="#ffd2bd"/>
<path d="M404.52 358.22l-.14-.37-.38.15.15.38z" fill="#ffd2bd"/>
<path d="M404.73 357.15l-1.31.5.5 1.31 1.31-.5z" fill="#ffd2bd"/>
<path d="M403.93 358.48l-.14-.37-.38.14.15.37z" fill="#ffd2bd"/>
<path d="M403.3 359.3l-.5-1.3 1.3-.5.5 1.3z" fill="#ffd2bd"/>
<path d="M402.9 358.7c0-.1 0-.2.1-.2l.2-.1.1.4-.2.1c-.1-.1-.2-.1-.2-.2z" fill="#ffd2bd"/>
<path d="M403.1 359.3a.37.37 0 01-.3-.1.78.78 0 01-.4-.4.45.45 0 010-.5.78.78 0 01.4-.4l.6-.2.5 1.3-.6.2a.31.31 0 01-.2.1zm.1-1l.2.4v-.2c-.1-.1-.1-.2-.2-.2zM403.7 355.7l-.2-.3.2-.1a.22.22 0 01.2.4z" fill="#ffd2bd"/>
<path d="M403.5 356.4l-.6-1.3.6-.3a.45.45 0 01.5 0 .78.78 0 01.4.4.66.66 0 01-.3.9zm0-1v.3c0 .1.1.1.2.2zm.5.4z" fill="#ffd2bd"/>
<path d="M403.47 355.82l-.18-.36-.36.18.18.36z" fill="#ffd2bd"/>
<path d="M403.51 354.88l-1.25.62.61 1.25 1.26-.61z" fill="#ffd2bd"/>
<path d="M402.87 356.25l-.18-.36-.36.18.18.36z" fill="#ffd2bd"/>
<path d="M403.06 355.19l-1.26.62.62 1.25 1.25-.61z" fill="#ffd2bd"/>
<path d="M401.9 356.4a.37.37 0 01.1-.3l.2-.1.2.3-.2.1c-.1.2-.3.1-.3 0z" fill="#ffd2bd"/>
<path d="M402.1 357a.55.55 0 01-.6-.4.66.66 0 01.3-.9l.6-.3.6 1.2-.6.3a.37.37 0 01-.3.1zm.2-.8l.1.2v-.3zm-.2-.2l.1.2h.1c0-.1-.1-.1-.2-.2zM402.5 353.4l-.2-.3.2-.1c.1-.1.2 0 .3.1s0 .2-.1.3z" fill="#ffd2bd"/>
<path d="M402.3 354.1l-.7-1.2.6-.4a.72.72 0 01.8 1.2zm0-1v.3c0 .1.1.1.2.1z" fill="#ffd2bd"/>
<path d="M402.26 353.6l-.2-.35-.34.21.2.34z" fill="#ffd2bd"/>
<path d="M401.8 354.5l-.7-1.2 1.2-.7.7 1.1z" fill="#ffd2bd"/>
<path d="M401.85 353.9l-.2-.35-.34.21.2.34z" fill="#ffd2bd"/>
<path d="M401.67 352.79l-1.2.72.72 1.2 1.2-.72z" fill="#ffd2bd"/>
<path d="M400.7 354.3c-.1-.1 0-.2.1-.3l.2-.1.2.3-.2.1a.19.19 0 01-.3 0z" fill="#ffd2bd"/>
<path d="M400.9 354.9a.71.71 0 01-.6-.3.78.78 0 01.2-1l.6-.4.7 1.2-.6.4c-.1 0-.2.1-.3.1zm.2-.8l.1.2c0-.1 0-.2-.1-.2zm-.1-.2l.1.2.1-.1a.31.31 0 00-.2-.1zM401.1 351.2l-.2-.3.2-.1c.1-.1.2 0 .3 0s0 .2 0 .3z" fill="#ffd2bd"/>
<path d="M401 351.9l-.8-1.1.6-.4a.72.72 0 11.8 1.2zm-.2-1v.3c.1.1.1.1.2.1z" fill="#ffd2bd"/>
<path d="M400.88 351.42l-.24-.33-.32.24.23.32z" fill="#ffd2bd"/>
<path d="M400.75 350.38l-1.13.82.82 1.14 1.14-.83z" fill="#ffd2bd"/>
<path d="M400.45 351.76l-.23-.32-.33.23.24.33z" fill="#ffd2bd"/>
<path d="M400.25 350.79l-1.13.82.82 1.13 1.14-.82z" fill="#ffd2bd"/>
<path d="M399.4 352.2c-.1-.1 0-.2 0-.3l.2-.1.2.3-.2.1c0 .1-.1.1-.2 0z" fill="#ffd2bd"/>
<path d="M399.6 352.8a.86.86 0 01-.6-.3.44.44 0 01-.1-.5c0-.2.1-.3.3-.5l.6-.4.8 1.1-.6.4c-.2.2-.3.2-.4.2zm.1-.8l.1.2c.1-.1 0-.2-.1-.2zm-.1-.2l.1.2.1-.1c-.1 0-.1-.1-.2-.1zM399.5 349.2l-.3-.3.1-.1a.21.21 0 01.3.3z" fill="#ffd2bd"/>
<path d="M399.4 349.9l-.9-1 .5-.5a.71.71 0 01.9 1.1zm-.2-1a.37.37 0 00.1.3.31.31 0 00.2.1z" fill="#ffd2bd"/>
<path d="M399.36 349.39l-.26-.3-.31.26.27.3z" fill="#ffd2bd"/>
<path d="M398.9 350.3l-.9-1 1.1-.9.9 1z" fill="#ffd2bd"/>
<path d="M398.76 349.77l-.26-.3-.31.26.27.3z" fill="#ffd2bd"/>
<path d="M398.59 348.76l-1.06.92.91 1.05 1.06-.91z" fill="#ffd2bd"/>
<path d="M397.9 350.3a.19.19 0 010-.3l.1-.1.3.3-.1.1c-.1.1-.3.1-.3 0z" fill="#ffd2bd"/>
<path d="M398 350.9a.71.71 0 01-.5-1.2l.5-.5.9 1.1-.5.5a1 1 0 01-.4.1zm.2-.8l.1.2c0-.2 0-.3-.1-.2a.35.35 0 00-.1-.2zM397.7 347.3l-.3-.3.1-.1a.21.21 0 01.3.3z" fill="#ffd2bd"/>
<path d="M397.7 348l-1-1 .5-.5a.71.71 0 011 1zm-.3-1c0 .1 0 .2.1.2a.37.37 0 00.3.1z" fill="#ffd2bd"/>
<path d="M397.49 347.53l-.29-.28-.28.29.29.28z" fill="#ffd2bd"/>
<path d="m397.2 348.5-1-1 1-1 1 1z" fill="#ffd2bd"/>
<path d="M397.13 347.88l-.29-.28-.28.29.29.28z" fill="#ffd2bd"/>
<path d="m396.71 347-1 1 1 1 1-1z" fill="#ffd2bd"/>
<path d="M396.2 348.5a.19.19 0 010-.3l.1-.1.3.3-.1.1a.19.19 0 01-.3 0z" fill="#ffd2bd"/>
<path d="M396.3 349.1c-.2 0-.3-.1-.5-.2a.67.67 0 010-1l.5-.5 1 1-.5.5a.76.76 0 01-.5.2zm.3-.7c0-.1 0-.1-.1-.2l-.1.1zm-.3-.3l.1.1.1-.1zM395.7 345.5l-.3-.2.1-.2a.21.21 0 01.3.3z" fill="#ffd2bd"/>
<path d="M395.8 346.2l-1.1-.9.4-.5a.71.71 0 111.1.9zm-.4-.9c0 .1 0 .2.1.2a.37.37 0 00.3.1z" fill="#ffd2bd"/>
<path d="M395.59 345.78l-.31-.26-.25.31.31.26z" fill="#ffd2bd"/>
<path d="M395.4 346.7l-1.1-.8.9-1.1 1.1.9z" fill="#ffd2bd"/>
<path d="M395.16 346.25l-.31-.25-.25.31.31.25z" fill="#ffd2bd"/>
<path d="M394.8 345.26l-.88 1.09 1.09.88.88-1.09z" fill="#ffd2bd"/>
<path d="M394.4 346.9a.19.19 0 010-.3l.1-.2.3.2-.1.2c-.1.2-.2.2-.3.1z" fill="#ffd2bd"/>
<path d="M394.5 347.5a.52.52 0 01-.4-.2.76.76 0 01-.1-1l.4-.5 1.1.9-.4.5a.86.86 0 01-.6.3zm.3-.8c0-.1 0-.1-.1-.2a.37.37 0 00-.3-.1zM393.7 344l-.3-.2.1-.2a.22.22 0 01.4.2z" fill="#ffd2bd"/>
<path d="M393.8 344.7l-1.1-.8.4-.6a.78.78 0 011-.2.75.75 0 01.2 1zm-.5-1a.35.35 0 00.1.2.19.19 0 00.3 0z" fill="#ffd2bd"/>
<path d="M393.5 344.1l-.33-.22-.22.33.33.22z" fill="#ffd2bd"/>
<path d="M393.4 345.2l-1.1-.8.8-1.1 1.1.7z" fill="#ffd2bd"/>
<path d="M393.2 344.77l-.33-.22-.22.33.33.22z" fill="#ffd2bd"/>
<path d="M392.67 343.81l-.78 1.16 1.16.79.78-1.16z" fill="#ffd2bd"/>
<path d="M392.4 345.5a.37.37 0 01-.1-.3l.1-.2.3.2-.1.2c0 .1-.1.1-.2.1z" fill="#ffd2bd"/>
<path d="M392.5 346a.6.6 0 01-.4-.1.54.54 0 01-.3-.4c0-.1 0-.4.1-.5l.4-.6 1.1.8-.4.6c0 .1-.3.2-.5.2zm0-1l.4.2a.35.35 0 00-.1-.2zM391.4 342.6l-.3-.2.1-.2a.22.22 0 11.4.2z" fill="#ffd2bd"/>
<path d="M391.6 343.3l-1.2-.7.3-.6a.67.67 0 011.2.6zm-.5-.9a.22.22 0 00.2.2c.1 0 .2.1.3 0z" fill="#ffd2bd"/>
<path d="M391.4 342.87l-.35-.2-.19.35.34.2z" fill="#ffd2bd"/>
<path d="M391.3 343.8l-1.2-.6.7-1.3 1.2.7z" fill="#ffd2bd"/>
<path d="M391 343.44l-.35-.2-.2.35.35.2z" fill="#ffd2bd"/>
<path d="M390.46 342.57l-.68 1.23 1.22.68.68-1.22z" fill="#ffd2bd"/>
<path d="M390.3 344.2a.37.37 0 01-.1-.3l.1-.2.3.2-.1.2c0 .1-.1.1-.2.1z" fill="#ffd2bd"/>
<path d="M390.4 344.7a.37.37 0 01-.3-.1.69.69 0 01-.3-.9l.3-.6 1.2.7-.3.6a.6.6 0 01-.6.3zm.2-.8l.1.1c0-.1-.1-.1-.1-.2h-.2zM389.1 341.4l-.4-.2.1-.2c0-.1.2-.1.3-.1s.1.2.1.3z" fill="#ffd2bd"/>
<path d="M389.4 342.1l-1.3-.6.3-.6a.87.87 0 01.9-.4.74.74 0 01.4.9zm-.7-.9a.22.22 0 00.2.2h.3z" fill="#ffd2bd"/>
<path d="M389.12 341.58l-.36-.16-.17.37.37.16z" fill="#ffd2bd"/>
<path d="M388.36 340.76l-.57 1.28 1.28.57.57-1.28z" fill="#ffd2bd"/>
<path d="M388.78 342.16l-.37-.16-.16.36.36.16z" fill="#ffd2bd"/>
<path d="M388.8 343.2l-1.2-.5.5-1.3 1.3.6z" fill="#ffd2bd"/>
<path d="M388.1 343.1c-.1 0-.1-.2-.1-.3l.1-.2.4.2-.1.2c0 .1-.2.1-.3.1z" fill="#ffd2bd"/>
<path d="M388.2 343.6a.37.37 0 01-.3-.1.87.87 0 01-.4-.9l.3-.6 1.3.6-.3.6a.78.78 0 01-.4.4zm.3-.8c0-.1-.1-.1-.1-.2h-.2zM386.7 340.4l-.4-.1.1-.2c0-.1.1-.2.2-.1s.2.1.1.2z" fill="#ffd2bd"/>
<path d="M387 341.1l-1.3-.5.2-.7a1.38 1.38 0 01.3-.4.45.45 0 01.5 0 .78.78 0 01.4.4.45.45 0 010 .5zm-.7-.8a.22.22 0 00.2.2h.2z" fill="#ffd2bd"/>
<path d="M386.67 340.73l-.37-.13-.13.38.37.13z" fill="#ffd2bd"/>
<path d="M386 339.89l-.46 1.32 1.32.46.46-1.32z" fill="#ffd2bd"/>
<path d="M386.36 341.21l-.38-.13-.13.38.37.13z" fill="#ffd2bd"/>
<path d="M385.68 340.5l-.46 1.32 1.32.46.46-1.28z" fill="#ffd2bd"/>
<path d="M385.9 342.2c-.1 0-.2-.1-.1-.2l.1-.2.4.1-.1.2a.37.37 0 01-.3.1z" fill="#ffd2bd"/>
<path d="M385.9 342.7h-.2a.61.61 0 01-.4-.9l.2-.7 1.3.5-.2.7a.84.84 0 01-.7.4zm.1-.9l.2.1a.22.22 0 00-.2-.2zm-.1 0h.1v-.1h-.3zM384.2 339.7l-.4-.1v-.2c0-.1.1-.2.2-.1s.2.1.1.2z" fill="#ffd2bd"/>
<path d="M384.6 340.3l-1.3-.3.2-.7c0-.2.2-.3.3-.4a.9.9 0 01.5-.1c.2 0 .3.2.4.3a.9.9 0 01.1.5zm-.8-.7l.2.2h.2z" fill="#ffd2bd"/>
<path d="M384.08 339.93l-.39-.1-.1.39.39.1z" fill="#ffd2bd"/>
<path d="M383.37 339.24l-.37 1.36 1.36.34.34-1.36z" fill="#ffd2bd"/>
<path d="M383.9 340.54l-.38-.09-.1.38.39.1z" fill="#ffd2bd"/>
<path d="M383.21 339.88l-.35 1.36 1.36.34.34-1.36z" fill="#ffd2bd"/>
<path d="M383.5 341.5c-.1 0-.2-.1-.1-.2v-.2l.4.1v.2a.37.37 0 01-.3.1z" fill="#ffd2bd"/>
<path d="M383.6 342h-.2c-.2 0-.3-.2-.4-.3a.9.9 0 01-.1-.5l.2-.7 1.3.3-.2.7a.56.56 0 01-.6.5zm.2-.8c0-.1-.1-.1-.2-.2h-.2zM381.6 339.1l-.4-.1v-.2a.2.2 0 01.4 0z" fill="#ffd2bd"/>
<path d="M382 339.7l-1.4-.2.1-.7c0-.2.1-.3.3-.5a.44.44 0 01.5-.1c.2 0 .3.1.5.3s.2.3.1.5zm-.8-.6c.1.1.1.1.2.1s.2 0 .2-.1z" fill="#ffd2bd"/>
<path d="M381.63 339.35l-.4-.07-.06.4.39.06z" fill="#ffd2bd"/>
<path d="M380.79 338.76l-.22 1.38 1.38.22.23-1.38z" fill="#ffd2bd"/>
<path d="M381.58 340.06l-.4-.07-.06.4.39.06z" fill="#ffd2bd"/>
<path d="M380.69 339.32l-.22 1.39 1.38.22.23-1.38z" fill="#ffd2bd"/>
<path d="M381.1 341a.22.22 0 01-.2-.2v-.2l.4.1v.2a.35.35 0 01-.2.1z" fill="#ffd2bd"/>
<path d="M381.2 341.5h-.1c-.2 0-.3-.1-.5-.3s-.2-.3-.1-.5l.1-.7 1.4.2-.1.7c0 .2-.1.3-.3.5a.6.6 0 01-.4.1zm.2-.8c0-.1-.1-.1-.2-.1s-.2 0-.2.1zM358.1 100h-1v23.3h1zM369.5 100.1h-1v23.3h1zM387 100.1h-1v23.3h1zM351.5 100h-1v23.3h1z" fill="#ffd2bd"/>
<path d="M344.45 106.58l-.19 1 60.88 11.21.18-1zM351 118.8a2.4 2.4 0 10-2.4-2.4 2.4 2.4 0 002.4 2.4z" fill="#ffd2bd"/>
<path d="M357.6 112.3a3.4 3.4 0 10-3.4-3.4 3.4 3.4 0 003.4 3.4zM100.62 66.38l-20.25 43.41.9.42 20.25-43.4zM84.88 66.32L54.44 110l.82.57L85.7 66.89z" fill="#ffd2bd"/>
<path d="M110.1 86.8H46.3v1h63.8zM110.5 74.5H58.3v1h52.2zM110.4 66.1H66.7v1h43.7zM405.4 127.3H273.8v1h131.6zM405.6 131.9H274v1h131.6zM405.2 136.6H273.6v1h131.6zM355.5 158.8a6.4 6.4 0 116.4-6.4 6.38 6.38 0 01-6.4 6.4zm0-11.7a5.4 5.4 0 105.4 5.4 5.38 5.38 0 00-5.4-5.4zM373.9 158.8a6.4 6.4 0 116.4-6.4 6.38 6.38 0 01-6.4 6.4zm0-11.7a5.4 5.4 0 105.4 5.4 5.38 5.38 0 00-5.4-5.4zM392.3 158.8a6.4 6.4 0 116.4-6.4 6.38 6.38 0 01-6.4 6.4zm0-11.7a5.4 5.4 0 105.4 5.4 5.38 5.38 0 00-5.4-5.4z" fill="#ffd2bd"/>
<path d="m373.8 158.4c1.27 0 2.3-2.64 2.3-5.9s-1-5.9-2.3-5.9-2.3 2.64-2.3 5.9 1.03 5.9 2.3 5.9zm-19.9 0c2.21 0 4-2.64 4-5.9s-1.79-5.9-4-5.9-4 2.64-4 5.9 1.79 5.9 4 5.9zm39.9 0c2.21 0 4-2.64 4-5.9s-1.79-5.9-4-5.9-4 2.64-4 5.9 1.79 5.9 4 5.9zm-81 12.9h-33.6v1h33.5a1.73 1.73 0 0 1 0.1-1zm4.3 0a1.8 1.8 0 0 1-0.2 1h22v-1z" fill="#ffd2bd"/>
<path d="M317.6 177.2h-5.3V169h5.3zm-4.3-1h3.3V170h-3.3z" fill="#ffd2bd"/>
<path d="M317.3 174.5h-4.4v.5h4.4zM317.1 172.5h-4.4v.5h4.4zM295.1 181.6v-.2h-16v1h16.1a2 2 0 01-.1-.8zM299.6 181.4a1.27 1.27 0 01.1.6c0 .2-.1.3-.1.4H339v-1z" fill="#ffd2bd"/>
<path d="M300 186.2h-5.3V178h5.3zm-4.3-1h3.3V179h-3.3z" fill="#ffd2bd"/>
<path d="m299.7 183.6h-4.4v0.5h4.4zm-0.2-2h-4.4v0.5h4.4zm-25.8-34.9 0.3 17.8h-8.6s0.5-6.1 1.8-8.6 3.6-7 6.5-9.2zm0 44.2h-7.8v5.1h7.8zm0 6.4h-7.8v3.2h7.8zm-0.1 4.4h-7.8v3.6h7.8zm0 4.9h-7.8v6.1h7.8zm-78.1-15.8h-21.6v5.1h21.6zm0.1 6.4h-21.6v3.2h21.6zm-0.3 4.4h-21.6v3.6h21.6zm0 4.9h-21.6v6.1h21.6zm70.1 21.5v34.5h52s-0.3-15.3-9.8-24.2-17.5-10.6-23.6-10.4-18.6 0.1-18.6 0.1zm-203.5 47.5h30.1v32.2c0.1 0-30.3-32.4-30.1-32.2zm3-143h-1v12.1h1zm0 14.2h-1v9.1h1zm0 11.3h-1v7.5h1zm0 9.5h-1v5.1h1zm0 6.7h-1v3.2h1zm0 5.1h-1v2.3h1zm0 3.9h-1v1.3h1zm0 3.3h-1v1h1zm0 2.7h-1v1h1zm0 2.5h-1v1h1zm3.7-59.2h-1v12.1h1zm0 14.2h-1v9.1h1zm0 11.3h-1v7.5h1zm0 9.5h-1v5.1h1zm0 6.7h-1v3.2h1zm0 5.1h-1v2.3h1zm0 3.9h-1v1.3h1zm0 3.3h-1v1h1zm0 2.7h-1v1h1zm0 2.5h-1v1h1zm3.7-59.2h-1v12.1h1zm0 14.2h-1v9.1h1zm0 11.3h-1v7.5h1zm0 9.5h-1v5.1h1zm0 6.7h-1v3.2h1zm0 5.1h-1v2.3h1zm0 3.9h-1v1.3h1zm0 3.3h-1v1h1zm0 2.7h-1v1h1zm0 2.5h-1v1h1zm3.8-59.2h-1v12.1h1zm0 14.2h-1v9.1h1zm0 11.3h-1v7.5h1zm0 9.5h-1v5.1h1zm0 6.7h-1v3.2h1zm0 5.1h-1v2.3h1zm0 3.9h-1v1.3h1zm0 3.3h-1v1h1zm0 2.7h-1v1h1zm0 2.5h-1v1h1zm3.7-59.2h-1v12.1h1zm0 14.2h-1v9.1h1zm0 11.3h-1v7.5h1zm0 9.5h-1v5.1h1zm0 6.7h-1v3.2h1zm0 5.1h-1v2.3h1zm0 3.9h-1v1.3h1zm0 3.3h-1v1h1zm0 2.7h-1v1h1zm0 2.5h-1v1h1zm3.7-59.2h-1v12.1h1zm0 14.2h-1v9.1h1zm0 11.3h-1v7.5h1zm0 9.5h-1v5.1h1zm0 6.7h-1v3.2h1zm0 5.1h-1v2.3h1zm0 3.9h-1v1.3h1zm0 3.3h-1v1h1zm0 2.7h-1v1h1zm0 2.5h-1v1h1zm3.8-59.2h-1v12.1h1zm0 14.2h-1v9.1h1zm0 11.3h-1v7.5h1zm0 9.5h-1v5.1h1zm0 6.7h-1v3.2h1zm0 5.1h-1v2.3h1zm0 3.9h-1v1.3h1zm0 3.3h-1v1h1zm0 2.7h-1v1h1zm0 2.5h-1v1h1zm3.7-59.2h-1v12.1h1zm0 14.2h-1v9.1h1zm0 11.3h-1v7.5h1zm0 9.5h-1v5.1h1zm0 6.7h-1v3.2h1zm0 5.1h-1v2.3h1zm0 3.9h-1v1.3h1zm0 3.3h-1v1h1zm0 2.7h-1v1h1zm0 2.5h-1v1h1zm376.22-1.39-7.2 6.05 0.64 0.76 7.2-6zm-54.3 43-7.2 6.05 0.64 0.76 7.2-6zm-6.57-42.87-0.65 0.77 7.2 6 0.65-0.77zm54.29 42.56-0.64 0.77 7.2 6 0.64-0.77zm-36.94-18.2h-18v0.5h18zm44.1 0h-18v0.5h18zm-30.8-24.4h-0.5v18h0.5zm0 31.3h-0.5v18h0.5zm-1.5-7h-0.5v-1.5h1.4v0.5h-0.9zm3-0.1h-0.5v-0.9h-0.9v-0.5h1.4zm0 2h-1.3v-0.5h0.8v-0.9h0.5zm-2.1 0h-1.4v-1.3h0.5v0.8h0.9zm-35.2 49.1h-11v11h11z" fill="#ffd2bd"/>
<path d="m401.6 277.1h-12v-12h12zm-10.9-1h10v-10h-10z" fill="#ffd2bd"/>
<path d="M392.08 267.23l-.36.35 7.36 7.35.35-.35z" fill="#ffd2bd"/>
<path d="M399.1 267.33l-7.36 7.36.36.35 7.35-7.35zM385.8 265.7h-11v11h11z" fill="#ffd2bd"/>
<path d="m386.2 277.1h-12v-12h12zm-10.9-1h10v-10h-10z" fill="#ffd2bd"/>
<path d="m383.6 267.7h-6.8v6.8h6.8z" fill="#ffd2bd"/>
<path d="M383.9 274.8h-7.3v-7.3h7.3zm-6.8-.5h6.3V268h-6.3z" fill="#ffd2bd"/>
<path d="m383.6 267.7h-6.8v2.3h6.8z" fill="#ffd2bd"/>
<path d="m383.9 270.3h-7.3v-2.8h7.3zm-6.8-0.5h6.3v-1.8h-6.3zm-6.7-4.1h-11v11h11z" fill="#ffd2bd"/>
<path d="m370.9 277.1h-12v-12h12zm-11-1h10v-10h-10z" fill="#ffd2bd"/>
<path d="m368.1 275h-6.4v0.5h6.4zm-9.9-84.3v34.5s-8.1-8.6-10.1-15.4-3.3-12.2-3.3-12.2l-0.4-6.7zm4.8-0.3v38.8l5.7 3.9v-42.5c-0.1 0.1-5.6-0.2-5.7-0.2zm10.6 0.3v44.6l5.7 2.6v-47zm10.7-0.2 0.1 48.3 5.5 0.9v-48.9c0.1-0.1-5.5-0.3-5.6-0.3zm10.7 0.3v48.9l5.7 0.2v-48.8zm46.1-26.2h-35.5v3.7h35.5zm27.1 3.7h-27.3v3.7h27.3zm-43.3 2.8h-18.9v5.5h18.9z" fill="#ffd2bd"/>
<path d="m459.5 176.5h-34.7v5.5h34.7z" fill="#ffd2bd"/>
<path d="m468.2 171.8h-8.8v4.9h8.8zm-48.6 11.8h-13.8v3.4h13.8z" fill="#ffd2bd"/>
<path d="m433.4 186.9h-13.8v3.4h13.8z" fill="#ffd2bd"/>
<path d="M467.7 183.6h-34.5v3.4h34.5zM451.1 227.6l2.9 4.3a.19.19 0 01-.1.3l-1 .6a.19.19 0 01-.3-.1l-2.9-4.4a.3.3 0 00-.4 0l-1.4 2.5a.21.21 0 01-.4-.1l-2.3-10.1c0-.2.2-.4.4-.2l8.4 6a.21.21 0 01-.1.4l-2.7.3c-.1.2-.2.4-.1.5zM192.4 147.7h-6.5a.22.22 0 01-.2-.2v-33.1a.22.22 0 01.2-.2h6.5a.22.22 0 01.2.2v33.1a.22.22 0 01-.2.2zM185.4 106.6h7.5c.3 0 .4-.2.3-.3l-3.8-3.8a.63.63 0 00-.6 0l-3.8 3.8c0 .1.1.3.4.3zM195.2 108.5H183v1h12.2zM185.4 183.3h7.5c.3 0 .4.2.3.3l-3.8 3.8a.63.63 0 01-.6 0l-3.8-3.8c0-.1.1-.3.4-.3zM195.2 180.5H183v1h12.2zM183 99.2h-1v91.1h1zM266.7 136.2h-27.9v-8.6h27.9zm-26.9-1h25.9v-6.6h-25.9v6.6z" fill="#ffd2bd"/>
<path d="M266.1 131.7h-26.6v.5h26.6z" fill="#ffd2bd"/>
<path d="M255.7 131.2h-5.8v1.5h5.8zM266.9 150.3H239v-8.6h27.9zm-26.9-1h25.9v-6.6H240z" fill="#ffd2bd"/>
<path d="M266.3 145.7h-26.6v.5h26.6z" fill="#ffd2bd"/>
<path d="m255.9 145.2h-5.8v1.5h5.8zm10.4-29.2h-27.9v-8.6h27.9zm-27-1h25.9v-6.6h-25.9v6.6z" fill="#ffd2bd"/>
<path d="M265.6 111.5H239v.5h26.6z" fill="#ffd2bd"/>
<path d="m255.2 111h-5.8v1.5h5.8zm-38.9 16.5h6.2v1.2h-5v2.5h3.8v1.2h-3.7v2.5h5v1.2h-6.2v-8.6zm1.3-19.1v6.2h-1.2v-6.2zm0-1.3h3.8v1.2h-3.8zm0 7.5h3.8v1.2h-3.8zm3.7-6.2h1.2v1.2h-1.2zm0 6.2v-1.2h1.2v1.2zm-5 27h6.2v1.2h-3.8v6.2h3.8v1.2h-5v-7.4h-1.2zm6.3 1.2h1.2v6.2h-1.2zm3.1-33.7h1.2v1.2h-1.2zm0 3.8h1.2v1.2h-1.2zm0 16.5h1.2v1.2h-1.2zm0 3.8h1.2v1.2h-1.2zm0 10.3h1.2v1.2h-1.2zm0 3.7h1.2v1.2h-1.2zm120 186.3h-29.1v-51.5l27.7-0.3 1.4 8.9zm-74.7-282.6h-1v48.7h1zm-2.7 0.6h-1v47.4h1zm-2 0.7h-1v46.4h1zm-1.6 0.9h-1v44.7h1zm-1.4 0.6h-1v43.3h1zm-1.3 0.3h-1v42.2h1zm-1.2 0.9h-1v40.6h1z" fill="#ffd2bd"/>
<path d="M260.2 56l-.3-.5-2.1 1.7-3.2 3.4-2.4 3.8-1.6 4.5-.9 4.9.1 3.9 1 4.5 1.5 4.1 2.5 3.9 2.7 3 2.4 2zM299.1 74.8h-24.7v1h24.7z" fill="#ffd2bd"/>
<path d="M291.5 57.19L274 74.66l.71.7 17.5-17.46z" fill="#ffd2bd"/>
<path d="M282.8 98.1l-8.9-22.4a.48.48 0 01.2-.6c.2-.1.5-.1.6.1l17.5 17.5-.7.7-15.7-15.7 8 20.2zM282.74 52.15L273.91 74l.93.37 8.82-21.89z" fill="#ffd2bd"/>
<path d="M296.9 84.8c-22.3-9.1-22.5-9.5-22.6-9.7a.3.3 0 010-.4q0-.15.3-.3l21.9-9.3.4.9-20.9 8.9c3.1 1.4 13.9 5.9 21.4 9zM319.8 478.4a17.3 17.3 0 1117.3-17.3 17.31 17.31 0 01-17.3 17.3zm0-33.5a16.3 16.3 0 1016.3 16.3 16.3 16.3 0 00-16.3-16.3z" fill="#ffd2bd"/>
<path d="M317.2 481.8a20.7 20.7 0 1120.7-20.7 20.74 20.74 0 01-20.7 20.7zm0-40.3a19.7 19.7 0 1019.7 19.7 19.67 19.67 0 00-19.7-19.7z" fill="#ffd2bd"/>
<path d="M315.1 484.7a23.6 23.6 0 1123.6-23.6 23.64 23.64 0 01-23.6 23.6zm0-46.1a22.6 22.6 0 1022.6 22.6 22.64 22.64 0 00-22.6-22.6z" fill="#ffd2bd"/>
<path d="M311.8 488.1a26.9 26.9 0 1126.9-26.9 26.91 26.91 0 01-26.9 26.9zm0-52.9a25.9 25.9 0 1025.9 25.9 25.91 25.91 0 00-25.9-25.9z" fill="#ffd2bd"/>
<path d="M323.2 474.9a13.7 13.7 0 1113.7-13.7 13.66 13.66 0 01-13.7 13.7zm0-26.4a12.7 12.7 0 1012.7 12.7 12.72 12.72 0 00-12.7-12.7z" fill="#ffd2bd"/>
<path d="M329 468.9a7.7 7.7 0 10-7.7-7.7 7.7 7.7 0 007.7 7.7z" fill="#ffd2bd"/>
<path d="m338.6 460.9h-57.6v0.5h57.6zm-102.4-440.6h-5.8v15.6h5.8zm5.8 0.3h-3.8v15.6h3.8zm4.5 0.2h-2.5v15.6h2.5zm3.3-0.4h-1.6v15.6h1.6zm24-0.1h-5.8v15.6h5.8zm-7.7 0.2h-3.8v15.6h3.8zm-5.9-0.2h-2.5v15.6h2.5zm-4.1 0.4h-1.6v15.6h1.6zm-4 8.9a1.3 1.3 0 1 0-1.3-1.3 1.3 1.3 0 0 0 1.3 1.3zm-133.4 266.3-37.7-68.6h91.9v-116.9h-150.1l44-44.4 0.7 0.7-42.3 42.7h148.7v118.9h-17.3zm-36-67.6 36 65.5 36.7-65.5z" fill="#ffd2bd"/>
<path d="M103.4 265.1l-.8-.3c-13.7-4.2-39.9-12.2-40.9-12.3v-.7c.6 0 29.9 9 40.2 12.1l-1.1-2.2-39.9-11.6.2-.7 40.3 11.7z" fill="#ffd2bd"/>
<path d="M138.25 259.35L100.08 261v.7l38.16-1.69zM102.77 264.21l-.17.68 28.61 7.17.17-.68zM195.62 262.5l-64 8.91.11.79 64-8.91z" fill="#ffd2bd"/>
<path d="M195.74 227.56L138 259.78l.34.61 57.72-32.22zM136.2 263.8l-.3-.7 59.6-26.1.3.6zM195.52 245.18l-61.27 21.09.23.67 61.27-21.1zM195.74 253.6l-63 15.18.19.78 63-15.18z" fill="#ffd2bd"/>
<path d="M102.54 263.38l-.14.79 30.6 5.33.14-.79z" fill="#ffd2bd"/>
<path d="M101.83 262.7l-.07.7 32.83 3.28.07-.69zM101.27 261.73v.8l35.09 1v-.8zM377.2 383.5a14.7 14.7 0 1114.7-14.7 14.72 14.72 0 01-14.7 14.7zm0-28.5a13.7 13.7 0 1013.7 13.7 13.72 13.72 0 00-13.7-13.7z" fill="#ffd2bd"/>
<path d="M406 141.8h61.5v22.1H406zM265.9 227.3H283a34.61 34.61 0 0134.6 34.6v.5a28.94 28.94 0 0126.9 18.7H405v-40.8h-11.7a49.49 49.49 0 01-49.4-49.3h-69.4v22.4h-8.6zM344.9 36.6v62.7h60a64.62 64.62 0 00-60-62.7zM405 100.9v-.7h-60.1v22.6H405zM317.6 333.3h27.7v-42a28.23 28.23 0 00-1.6-9.2h-26.1zM378.3 451.9l36.6-38.9h-97.3a39.11 39.11 0 0039.1 38.9h21.6zM406 191h61.5v48.3H406zM406 164.9h61.5V190H406z" fill="none"/>
<path d="m317.6 263.4v17.7h25.8a28.05 28.05 0 0 0-25.8-17.7zm-43.1-163.1h69.4v22.5h-69.4zm69.4 40.4v-16.9h-69.4v21.6a23.64 23.64 0 0 1 14.1-4.7zm1-16.9h60.1v17h-60.1zm-70.4 41.1h69.4v25.1h-69.4z" fill="none"/>
<path d="m343.9 141.8h-55.3a22.55 22.55 0 0 0-14.1 4.9v17.2h69.4zm0-105.2c-1.1-0.1-2.3-0.1-3.4-0.1h-66v62.8h69.4zm1 105.2h60.1v22.1h-60.1zm0 23.1h60.1v25.1h-60.1zm48.4 74.4h11.7v-48.3h-60.1a48.48 48.48 0 0 0 48.4 48.3zm82.1-116.5-21.7-22.5h-47.8v22.5h69.5zm-98.5 246.9h0.6v0.6h-0.6zm-1.2-1.2h0.5v0.6h-0.5zm1.6 0.2h1.4v-0.2h-1.2v-1.2h-0.3v1.4h0.1zm-60.7-106.8a33.67 33.67 0 0 0-33.6-33.6h-17.1v34.1h50.7z" fill="none"/>
<path d="M467.5 240.3H406v41.8h-61.1a28.17 28.17 0 011.5 9.2v43h-28.8V412h98.3l39.8-42.3h-72.78a5.8 5.8 0 11-6.72-6.61V345.5a44.39 44.39 0 0144.3-44.3h37.2v67.5h9.8zM406.1 140.8h62.5v23.1H515l-38.5-40h-70.4v16.9zM493.9 191h-25.4v48.3a42.65 42.65 0 0125.4 8.8z" fill="none"/>
<path d="m468.5 368.7h25.4v-119.3a41.2 41.2 0 0 0-25.4-9.1zm-85.5 0h73.7v-66.5h-36.2a43.32 43.32 0 0 0-43.3 43.3v17.5a5.79 5.79 0 0 1 5.8 5.7zm34.3 43.3h14.5a35.72 35.72 0 0 0 35.7-35.7v-6.6h-10.4zm-32.4 71.5h-36.3l28.8-30.6h-20.7a40.12 40.12 0 0 1-40.1-39.9h-110l142.4 147.9h35.9zm-119-220.1h50.7v17.7h-50.7zm119 358.7v-22.4l-36.3-37.8h-49l58 60.2h27.3zm0-60.2h-35l35 36.3v-36.3zm-87.6-1-102.9-106.8 0.2 54.7 50.2 52.1h52.5zm-91.5 48 13.1 13.2h137.3l-57.9-60.2h-52.5l45.3 47h-85.3zm-11-48h48.6l-48.8-50.7 0.2 50.7z" fill="none"/>
<path d="M385.9 623.1h-27.3l8.3 8.7h48.9l-29.9-31.1v22.4zM60.9 213.4H2.2l58.7 60.9v-60.9zM203.3 607.9l-53.8-53.7v53.7h53.8zM56.1 475.1h68l-68-70.6v70.6z" fill="none"/>
<path d="M147.6 632.8a92.5 92.5 0 01-92.4-92.4v-64.3H27.3v174.4h-.1l356.6.3-17.4-18zM60.9 276.1l-54-.3-1 199.3h20.4V324.8l34.6.1v-48.8z" fill="none"/>
<path d="M60.9 325.8l-33.6-.1V475h27.9v-73.1l71.4 74.1H56.1v64.4a91.5 91.5 0 0091.4 91.4h218l-8.4-8.7H218.5l-14.2-14.2h-55.8v-57.1l56.2 56.1h83.9l-44.3-46h-50.6l-.2-52.7L60.9 371.3z" fill="none"/>
<path d="M193.4 451.5l105.3 109.4h48.9L204.3 412h112.3v-77.7H175.4v78.4L99 333.3h75.4v-7.2l-112.5-.2v45l131.7 136.8-.2-56.2z" fill="none"/>
<path d="M174.4 334.3h-73l73 75.9v-75.9zM494.9 250.2v118.5h14.3v-87.4a40.76 40.76 0 00-14.3-31.1zM62.6 276.1l29.2 30.3-.2-30.2-29-.1zM466.3 560.9v-74.8a13 13 0 00-13-13h-7.9v87.8h20.9z" fill="none"/>
<path d="M517.3 164.8h-48.8v25.1h26.4v58.9a42.09 42.09 0 0115.3 32.4v88.4h-15.3V596a36.79 36.79 0 01-36.7 36.7h-12.7v17.8h87.2V123.8h-54.9zM378.8 453L351 482.6h34.9v78.3h31.3v-68.6a39.32 39.32 0 00-38.4-39.3zM385.9 599.3l31.3 32.5v-69.9h-31.3v37.4zM418.2 561.9h26.3v69.9h-26.3z" fill="none"/>
<path d="M467.4 486.1v75.8h-21.8v69.9h12.6a35.72 35.72 0 0035.7-35.7V369.7h-25.4v6.6a36.79 36.79 0 01-36.7 36.7h-15.4l-36.7 39a40.43 40.43 0 0138.5 40.3v68.6h26.3v-88.8h8.9a14 14 0 0114 14zM195.2 100.3h-68.7v31.5H157v52.9l-31.5-32.8v-19.1h-14.8V190h84.5v-89.7zM230.7 36.5h42.8v62.8h-42.8zM273.5 146.2v-22.4h-42.8v40.1h34.2a23.8 23.8 0 018.6-17.7zM230.7 100.3h42.8v22.5h-42.8zM212.8 36.5h17v62.8h-17zM265.9 191h7.6v21.4h-7.6z" fill="none"/>
<path d="M273.5 147.5a23.09 23.09 0 00-7.6 16.4h7.6zM230.7 20.9h42.8v14.6h-42.8zM212.8 100.3h17v22.5h-17zM196.2 191h68.7v21.4h-68.7zM125.5 99.3h69.7V67.1h-84.5v64.7h14.8V99.3zM156 132.8h-29.5v18.7l29.5 30.7v-49.4zM265.9 164.9h7.6V190h-7.6zM196.2 228.3h68.7v34.1h-68.7z" fill="none"/>
<path d="m195.2 191h-85.5v-58.2h-47.8v79.6h133.3v-21.4zm1 22.4h68.7v13.9h-68.7zm68.7-48.5h-35.2v-41h-18v-23.5h-15.5v89.6h68.7v-25.1z" fill="none"/>
<path d="M175.4 333.3h141.2v-51.2h-51.7v-18.7h-69.7v-35.1h-21.8v-1h21.8v-13.9H61.9v61.7l30.7.2.2 33.7-30.9-32.2v48l113.5.2v8.3z" fill="none"/>
<path d="M476.8 122.9l-22.6-23.5H406a65.47 65.47 0 00-61-63.7V.2h-1v35.5c-1.1-.1-2.3-.1-3.4-.1h-66V19.9h-44.8v15.6h-18v63.8h-15.5V66.1h-86.5v65.7H61v80.6H0l60.3 62.7-54.4-.3-1 200.8v.5h21.4v175.4l359.9.3-18.3-19h48.9l1.4 1.5v-1.5h26.3v18.7h89.2V122.9zm38.2 41h-46.4v-23.1h-62.5v-16.9h70.4zm-46.5 75.4V191h25.4v57.1a42.65 42.65 0 00-25.4-8.8zm25.4 10.1v119.3h-25.4V240.3a41.2 41.2 0 0125.4 9.1zm-36.2 119.3v-67.5h-37.2a44.39 44.39 0 00-44.3 44.3v17.59a6.64 6.64 0 011-.09v-17.5a43.32 43.32 0 0143.3-43.3h36.2v66.5H383a.34.34 0 010 .1 5.29 5.29 0 01-.08.9h72.78L415.9 412h-98.3v-77.7h28.8v-43a28.17 28.17 0 00-1.5-9.2H406v-41.8h61.5v128.4zm9.8 1v6.6a35.72 35.72 0 01-35.7 35.7h-14.5l39.8-42.3zM194.6 508.8l-.2-54.7 102.9 106.8h-52.5zm48.8 52.1h-48.6l-.2-50.7zm54.9 1l57.9 60.2H218.9l-13.1-13.2h85.3l-45.3-47zm1.3 0h49l36.3 37.8v22.4h-27.3zm50.3 0h35v36.3zm-.9-1L206.6 413h110a40.12 40.12 0 0040.1 39.9h20.7l-28.8 30.6h36.3v77.4zm-32.4-297.5v17.7h-50.7v-17.7zm-50.7-1v-34.1H283a33.67 33.67 0 0133.6 33.6v.5zm90.8 189.5a39.11 39.11 0 01-39.1-38.9h97.3l-36.6 38.9h-21.6zm-13-169.8a28.23 28.23 0 011.6 9.2v42h-27.7v-51.2zm-26.1-1v-17.7a28.05 28.05 0 0125.8 17.7zm88.4-41.8V191h61.5v48.3zm0-49.3v-25.1h61.5V190zm0-26.1v-22.1h61.5v22.1zm-.1-62.9v-.7h47.8l21.7 22.5h-69.5zm-61-64.4a64.62 64.62 0 0160 62.7h-60zm0 63.6H405v22.6h-60.1zm0 23.6H405v17h-60.1zm0 18H405v22.1h-60.1zm0 23.1H405V190h-60.1zM405 191v48.3h-11.7a48.48 48.48 0 01-48.4-48.3zM274.5 36.5h66c1.1 0 2.3 0 3.4.1v62.7h-69.4zm0 63.8h69.4v22.5h-69.4zm0 23.5h69.4v16.9h-55.3a23.64 23.64 0 00-14.1 4.7zm0 22.9a22.55 22.55 0 0114.1-4.9h55.3v22.1h-69.4zm0 18.2h69.4V190h-69.4zm0 26.1h69.4a49.49 49.49 0 0049.4 49.3H405v40.8h-60.5a28.94 28.94 0 00-26.9-18.7v-.5a34.61 34.61 0 00-34.6-34.6h-17.1v-13.9h8.6zm-1-26.1V190h-7.6v-25.1zm-7.6-1a23.09 23.09 0 017.6-16.4v16.4zm7.6 27.1v21.4h-7.6V191zM230.7 20.9h42.8v14.6h-42.8zm0 15.6h42.8v62.8h-42.8zm0 63.8h42.8v22.5h-42.8zm0 23.5h42.8v22.4a23.8 23.8 0 00-8.6 17.7h-34.2zm-17.9-87.3h17v62.8h-17zm0 63.8h17v22.5h-17zm-16.6.1h15.5v23.5h18v41h35.2V190h-68.7zm0 90.6h68.7v21.4h-68.7zm0 22.4h68.7v13.9h-68.7zm0 14.9h68.7v34.1h-68.7zM110.7 67.1h84.5v32.2h-69.7v32.5h-14.8zm15.8 65.7H156v49.4l-29.5-30.7zm-15.8 0h14.8v19.1l31.5 32.8v-52.9h-30.5v-31.5h68.7V190h-84.5zm-48.8 0h47.8V191h85.5v21.4H61.9zm0 144L92.8 309l-.2-33.7-30.7-.2v-61.7h133.3v13.9h-21.8v1h21.8v35.1h69.7v18.7h51.7v51.2H175.4V325l-113.5-.2zm.7-.7l29 .1.2 30.2zm-.7 49.8l112.5.2v7.2H99l76.4 79.4v-78.4h141.2V412H204.3l143.3 148.9h-48.9L193.4 451.5l.2 56.2L61.9 370.9zm112.5 8.4v75.9l-73-75.9zm19.1 174.9l.2 52.7h50.6l44.3 46h-83.9l-56.2-56.1v57.1h55.8l14.2 14.2h138.6l8.4 8.7h-218a91.5 91.5 0 01-91.4-91.4V476h70.5l-71.4-74.1V475H27.3V325.7l33.6.1v45.5zm9.8 98.7h-53.8v-53.7zM56.1 475.1v-70.6l68 70.6zM2.2 213.4h58.7v60.9zm24.1 261.7H5.9l1-199.3 54 .3v48.8l-34.6-.1zm357.5 175.7l-356.6-.3h.1V476.1h27.9v64.3a92.5 92.5 0 0092.4 92.4h218.8zm-16.9-19l-8.3-8.7h27.3v-22.4l29.9 31.1zm50.3 0l-31.3-32.5v-37.4h31.3zm0-70.9h-31.3v-78.3H351l27.8-29.6a39.32 39.32 0 0138.4 39.3zm27.3 70.9h-26.3v-69.9h26.3zm0-70.9h-26.3v-68.6a40.43 40.43 0 00-38.5-40.3l36.7-39h15.4a36.79 36.79 0 0036.7-36.7v-6.6h25.4v226.4a35.72 35.72 0 01-35.7 35.7h-12.6v-69.9h21.8v-75.8a14 14 0 00-14-14h-8.9zm.9-87.8h7.9a13 13 0 0113 13v74.8h-20.9zm87.3 177.4h-87.2v-17.8h12.7a36.79 36.79 0 0036.7-36.7V369.6h15.3v-88.4a42.09 42.09 0 00-15.3-32.4v-58.9h-26.4v-25.1h48.8l-39.5-41h54.9zm-37.8-281.8V250.2a40.76 40.76 0 0114.3 31.1v87.4z" fill="#ffd2bd"/>
<path d="M371.4 368.8a5.79 5.79 0 0011.52.9h-5.42v.6h-.6v-.6h-.7v-.6h-.5v-.6h.5v-5.41a5.81 5.81 0 00-4.8 5.71z" fill="#ffd2bd"/>
<path d="M377.5 367.3v1.2h1.2v.2h4.3a5.79 5.79 0 00-5.79-5.7v4.3zM376.2 369.1h.7v.6h-.7zM378.7 369.1h-1.2v.6h5.42a5.29 5.29 0 00.08-.9.34.34 0 000-.1h-4.3zM376.9 368.5v-1.2h.3V363a6.64 6.64 0 00-1 .09v5.41zM323.5 118.4h-.2c-1.6 0-5.2-.2-7.5-6h-13.3c-2.5 4-4.8 5.9-7.1 5.9-2.9.1-5.5-1.9-8-5.9h-14.1l.5-.8c3-5 5.7-5.7 7.1-5.6h.1c1.4 0 4 .1 6.8 5a.76.76 0 01.2.4h13.9c3.6-5.7 6.2-5.6 7.3-5.6h.3c3-.1 5.3 1.8 6.9 5.6h13.7c1.7-3.6 4.1-5.5 7.3-5.7 3.6-.2 6.1 1.8 7.3 6.1l-.4.1v.5h-13.6c-2 4.9-5 6-7.2 6zm-6.6-5.9c2.1 4.8 5 4.9 6.4 5 2.7.1 4.8-1.6 6.4-5zm-28.3 0c2.8 4.4 5.2 4.9 6.8 4.9 1.8 0 3.8-1.6 5.9-4.9zm42.6-1h12.4c-1.7-5-5-4.8-6.1-4.7-2.7.1-4.8 1.6-6.3 4.7zm-28.1 0h12.3c-2.1-4.7-4.9-4.6-5.8-4.6h-.3c-1 0-3.1-.1-6.2 4.6zm-28 0h11.8c-2.5-4.3-4.6-4.4-5.9-4.4h-.1c-1.2-.1-3.3.5-5.8 4.4zM284.5 406.9h-14.3v-10.3h14.3zm-13.3-1h12.3v-8.3h-12.3z" fill="#ffd2bd"/>
<path d="m292.6 401.4h-8.8v1h8.8z" fill="#ffd2bd"/>
<path d="m295.6 402-4.5-2.6v5.1zm-17.7 1.4h-1v14h1z" fill="#ffd2bd"/>
<path d="m277.3 420.5 2.5-4.5h-5.1zm-14.2-8.1-0.9-0.4 2.9-6h51.6v1h-51z" fill="#ffd2bd"/>
<path d="m267.6 406.52-2.53 5.48 0.45 0.21 2.54-5.44zm2.31 0.01-2.53 5.47 0.45 0.21 2.53-5.44zm2.35-0.07-2.53 5.44 0.45 0.21 2.53-5.44zm2.31 0.01-2.57 5.44 0.45 0.21 2.53-5.44zm2.31 0.01-2.53 5.44 0.45 0.21 2.53-5.44zm2.31 0.02-2.53 5.44 0.45 0.21 2.53-5.44zm2.31 0.01-2.5 5.49 0.46 0.21 2.53-5.44zm2.3 0.01-2.53 5.48 0.46 0.21 2.53-5.44zm2.31 0.02-2.53 5.46 0.45 0.21 2.54-5.44zm2.35-0.08-2.53 5.44 0.45 0.21 2.54-5.44zm2.31 0.01-2.53 5.44 0.45 0.21 2.54-5.44zm2.31 0.02-2.53 5.44 0.45 0.21 2.53-5.44zm2.31 0.01-2.53 5.44 0.45 0.21 2.53-5.44zm2.31 0.01-2.53 5.49 0.45 0.21 2.53-5.44zm2.3 0.02-2.53 5.47 0.46 0.21 2.53-5.44zm2.36-0.08-2.54 5.44 0.46 0.21 2.53-5.44zm2.31 0.01-2.54 5.44 0.46 0.21 2.53-5.44zm2.33 0.02-2.53 5.44 0.45 0.21 2.54-5.44zm2.28 0.01-2.53 5.44 0.45 0.21 2.54-5.44zm2.31 0.01-2.53 5.44 0.45 0.21 2.53-5.44zm2.31 0.02-2.53 5.48 0.45 0.21 2.53-5.44zm2.31 0.01-2.53 5.47 0.45 0.21 2.53-5.44zm0.59-4.83h-20.3v0.5h20.3zm-39.5 1.9a1.6 1.6 0 1 1 1.6-1.6 1.64 1.64 0 0 1-1.6 1.6zm0-2.7a1.1 1.1 0 1 0 1.1 1.1 1.11 1.11 0 0 0-1.1-1.1zm-60.4-361.3h-4.5v0.5h4.5zm3.5 3h-8v0.5h8zm-3.5 3h-4.5v0.5h4.5zm3.5 3h-8v0.5h8zm-3.5 2.9h-4.5v0.5h4.5zm3.5 3h-8v0.5h8zm-3.5 3h-4.5v0.5h4.5zm3.5 3h-8v0.5h8zm-3.5 3h-4.5v0.5h4.5zm3.5 3h-8v0.5h8zm-3.5 2.9h-4.5v0.5h4.5zm3.5 3h-8v0.5h8zm-3.5 3h-4.5v0.5h4.5zm3.5 3h-8v0.5h8zm-3.5 3h-4.5v0.5h4.5zm3.5 2.9h-8v0.5h8zm-3.5 3h-4.5v0.5h4.5zm3.5 3h-8v0.5h8zm-3.5 3h-4.5v0.5h4.5zm3.5 3h-8v0.5h8zm5-54a1.7 1.7 0 1 1 1.7-1.7 1.69 1.69 0 0 1-1.7 1.7zm0-2.8a1.2 1.2 0 1 0 1.2 1.2 1.16 1.16 0 0 0-1.2-1.2zm42.21 568.57-0.7 0.71 14.28 14.28 0.71-0.7zm-56.13 0.06-0.71 0.7 14.28 14.29 0.71-0.71zm6.08 0.19-0.36 0.35 14.29 14.33 0.35-0.35zm6.44-0.17-0.71 0.71 14.29 14.28 0.7-0.7zm6.13 0.08-0.35 0.36 14.28 14.28 0.35-0.35zm6.44-0.12-0.71 0.71 14.29 14.28 0.7-0.71zm6.08 0.19-0.35 0.35 14.28 14.29 0.35-0.36zm6.43-0.16-0.71 0.7 14.29 14.29 0.7-0.71zm6.08 0.19-0.35 0.35 14.28 14.32 0.35-0.35zm6.5-0.24-0.7 0.71 14.28 14.28 0.71-0.71zm-34.96 0.81-14.7-14.7 0.7-0.7 14 13.9 15.1-15.1 0.7 0.7z" fill="#ffd2bd"/>
<path d="M240.6 608.9l-7.4-7.4.7-.7 6.7 6.6 15.1-15.1.7.7zM226.6 593.44l-.71.71 5.87 5.87.7-.71zM243 594.3l-2.5-2.5 3.4-.9z" fill="#ffd2bd"/>
<path d="M256.9 594.3l-2.5-2.5 3.4-.9zM175.3 489H55.9v1h119.4zM78.8 529.7a7 7 0 117-7 7 7 0 01-7 7zm0-13a6 6 0 106 6 6 6 0 00-6-6zM107.1 530.4a6.5 6.5 0 10-6.5-6.5 6.5 6.5 0 006.5 6.5z" fill="#ffd2bd"/>
<path d="M107.1 530.9a7 7 0 117-7 7 7 0 01-7 7zm0-13a6 6 0 106 6 6 6 0 00-6-6z" fill="#ffd2bd"/>
<path d="M120.6 530.9a7 7 0 117-7 7 7 0 01-7 7zm0-13a6 6 0 106 6 6 6 0 00-6-6zM134.3 530.4a6.5 6.5 0 10-6.5-6.5 6.5 6.5 0 006.5 6.5z" fill="#ffd2bd"/>
<path d="M134.3 530.9a7 7 0 117-7 7 7 0 01-7 7zm0-13a6 6 0 106 6 6 6 0 00-6-6z" fill="#ffd2bd"/>
<path d="m147.6 530.9a7 7 0 1 1 7-7 7 7 0 0 1-7 7zm0-13a6 6 0 1 0 6 6 6 6 0 0 0-6-6zm-40-28.3h-1v27.4h1zm13.4 0h-1v27.4h1zm13.5 0h-1v27.4h1z" fill="#ffd2bd"/>
<path d="M147.9 489.6h-1V517h1zM96.76 489l-15.3 28.2.88.48 15.3-28.22zM466.8 551.4h-21.7v10.2h21.7zM466.8 539.2h-21.7v9.1h21.7zM466.8 527.4h-21.7v8.2h21.7zM466.8 517.1h-21.7v6.1h21.7zM466.8 508h-21.7v5.3h21.7zM466.8 501.8h-21.7v3.5h21.7zM466.8 496.8h-21.7v2.9h21.7zM466.5 492.4h-21.7v2.2h21.7zM466.7 489.4H445v1.4h21.7zM466.8 487.2h-21.7v.8h21.7zM466.7 486H445v.4h21.7zM466.4 485.3h-21.7v.3h21.7zM466.2 484.8h-21.7v.2h21.7zM467 484.4h-21.7v.2H467zM467 484h-21.7v.2H467zM466.7 483.7H445v.1h21.7zM125.8 624.3a4.44 4.44 0 01-4.4-4.4v-32.8a3.4 3.4 0 00-6.8 0v22.8a4.4 4.4 0 11-8.8 0v-16.2a3.4 3.4 0 10-6.8 0v24.4h-1v-24.3a4.4 4.4 0 118.8 0V610a3.4 3.4 0 106.8 0v-22.8a4.4 4.4 0 118.8 0V620a3.4 3.4 0 006.8 0v-28.7a4.4 4.4 0 018.8 0v22.4a3.4 3.4 0 006.8 0v-40.1a4.44 4.44 0 014.4-4.4v1a3.37 3.37 0 00-3.4 3.4v40.1a4.4 4.4 0 01-8.8 0v-22.4a3.4 3.4 0 00-6.8 0V620a4.42 4.42 0 01-4.4 4.3zM319.6 52.8a4.65 4.65 0 01-4.6-4.6V18.9a3.6 3.6 0 00-7.2 0v9a4.6 4.6 0 01-9.2 0v-2.1a3.6 3.6 0 00-7.2 0v10.6h-1V25.8a4.6 4.6 0 019.2 0v2.1a3.6 3.6 0 007.2 0v-9a4.6 4.6 0 019.2 0v29.3a3.6 3.6 0 107.2 0V23.1a4.6 4.6 0 119.2 0v8.5a3.6 3.6 0 007.2 0v-27a4.65 4.65 0 014.6-4.6v1a3.59 3.59 0 00-3.6 3.6v27a4.61 4.61 0 01-9.2.3v-8.8a3.6 3.6 0 10-7.2 0v25.1a4.65 4.65 0 01-4.6 4.6z" fill="#ffd2bd"/>
<path d="M303.3 30a2.5 2.5 0 112.5-2.5 2.48 2.48 0 01-2.5 2.5zm0-4a1.5 1.5 0 101.5 1.5 1.47 1.47 0 00-1.5-1.5zM335.9 33.1a2.5 2.5 0 112.5-2.5 2.48 2.48 0 01-2.5 2.5zm0-4a1.5 1.5 0 101.5 1.5 1.42 1.42 0 00-1.5-1.5zM121.6 62.7a6.2 6.2 0 116.2-6.2 6.17 6.17 0 01-6.2 6.2zm0-11.3a5.23 5.23 0 00-5.2 5.2 5.2 5.2 0 105.2-5.2z" fill="#ffd2bd"/>
<path d="M122.1 50.9h-1v11.3h1zM138 62.7a6.2 6.2 0 116.2-6.2 6.23 6.23 0 01-6.2 6.2zm0-11.3a5.23 5.23 0 00-5.2 5.2 5.2 5.2 0 1010.4 0 5.23 5.23 0 00-5.2-5.2z" fill="#ffd2bd"/>
<path d="M143.6 56.1h-11.3v1h11.3zM154.4 62.7a6.15 6.15 0 01-4.4-10.5 6 6 0 014.4-1.8 6.2 6.2 0 014.4 1.8 6 6 0 011.8 4.4 6.2 6.2 0 01-1.8 4.4 7 7 0 01-4.4 1.7zm-3.7-2.5a5.19 5.19 0 007.3 0 5.08 5.08 0 001.5-3.6A4.75 4.75 0 00158 53a5.19 5.19 0 00-7.3 0 5.07 5.07 0 000 7.2z" fill="#ffd2bd"/>
<path d="M150.74 52.21l-.71.7 8 8 .71-.7zM170.7 62.7a6.2 6.2 0 116.2-6.2 6.17 6.17 0 01-6.2 6.2zm0-11.3a5.23 5.23 0 00-5.2 5.2 5.2 5.2 0 105.2-5.2z" fill="#ffd2bd"/>
<path d="M176.4 56.1h-11.3v1h11.3zM175.6 59H166v1h9.6zM187.1 62.7a6.15 6.15 0 01-4.4-10.5 6 6 0 014.4-1.8 6.2 6.2 0 014.4 1.8 6 6 0 011.8 4.4 6.2 6.2 0 01-1.8 4.4 6.56 6.56 0 01-4.4 1.7zm-3.6-2.5a5.19 5.19 0 007.3 0 5.08 5.08 0 001.5-3.6 4.75 4.75 0 00-1.5-3.6 5.19 5.19 0 00-7.3 0 5.07 5.07 0 000 7.2z" fill="#ffd2bd"/>
<path d="M183.45 52.24l-.7.71 8 8 .7-.71z" fill="#ffd2bd"/>
<path d="m190.79 52.22-8 8 0.71 0.7 8-8zm-124.09 14.38h18.4l-5.9 8.6-20.4-0.5zm34.4 0.1-3.7 8.2 12.6 0.1 0.2-8.4zm-21.9 8.5-8.2 12h20.1l5.7-12.2zm-32.9 12.1 23.9 0.1-15.3 22.4h-30.4zm44.8-0.1-10.1 22.6h29l0.1-22.5zm12.28 246.29-0.71 0.7 71.89 71.53 0.7-0.71zm219.02-6.79h-2.8v3.9h2.8zm5.4 0h-2.8v3.9h2.8zm5.3 0h-2.8v3.9h2.8zm5.3 0h-2.8v3.9h2.8zm5.4 0h-2.8v3.9h2.8zm-21.4-5.7h-2.8v3.9h2.8zm5.4 0h-2.8v3.9h2.8zm5.3 0h-2.8v3.9h2.8zm5.3 0h-2.8v3.9h2.8zm5.4 0h-2.8v3.9h2.8zm-21.4-5.7h-2.8v3.9h2.8zm5.4 0h-2.8v3.9h2.8zm5.3 0h-2.8v3.9h2.8zm5.3 0h-2.8v3.9h2.8zm5.4 0h-2.8v3.9h2.8zm-89.9 214.8h-8.5l-23.4-23.4v-10l32 33.4h8.5l30 31.2h5.4l-104-108.5v5l28.1 29v10l-28.1-29.2v17.7l76 76h13.9zm-59.7-20.7v15.5l36.2 36.1h13.3zm-44.6 44.7v16.2l39.5 37.7h14.5z" fill="#ffd2bd"/>
<path d="M223.6 477.1a14.4 14.4 0 1114.4-14.4 14.4 14.4 0 01-14.4 14.4zm0-27.9a13.4 13.4 0 1013.4 13.4 13.4 13.4 0 00-13.4-13.4z" fill="#ffd2bd"/>
<path d="M223.94 462.34l-.71.71 45.47 45.46.7-.7z" fill="#ffd2bd"/>
<path d="M272.4 511.7l-5.4-1.5 4-4zm-3.5-2l2.1.6-.6-2.1zM173.1 216.4h-11.7v3.2h11.7z" fill="#ffd2bd"/>
<path d="m161.6 219.3h-29.5v3.2h29.5z" fill="#ffd2bd"/>
<path d="m132.2 216.4h-29.5v3.2h29.5z" fill="#ffd2bd"/>
<path d="m102.9 219.3h-41.4v3.2h41.4zm2.68 114.11-0.65 0.76 69.66 59.94 0.65-0.76zm3 0.01-0.59 0.8 66.45 48.78 0.59-0.8zm3.35-0.14-0.49 0.87 63.25 35.24 0.48-0.88zm4.12 0.07-0.3 1 58.61 18.29 0.3-1zm6.14 0.03-0.11 1 52.26 6 0.11-1z" fill="#ffd2bd"/>
<path d="m125.8 333.3h-1v26.9h1zm30.4 0.2h-1v58.2h1zm193.5 149.8h-1v78h1z" fill="#ffd2bd"/>
<path d="m353 483.2h-3.8v44.2h3.8z" fill="#ffd2bd"/>
<path d="m356.4 527.1h-3.8v25.6h3.8z" fill="#ffd2bd"/>
<path d="m353 552.2h-3.8v9.2h3.8zm28.3 8.99h3.8v-44.19h-3.8z" fill="#ffd2bd"/>
<path d="m377.88 517.29h3.8v-25.6h-3.8z" fill="#ffd2bd"/>
<path d="M381.3 492.14h3.8v-9.2h-3.8zM507.3 366.4h-10.4V300h10.4zm-9.4-1h8.4V301h-8.4z" fill="#ffd2bd"/>
<path d="m506.6 359h-2.3v1h2.3zm0-7.4h-2.3v1h2.3zm0-7.4h-2.3v1h2.3zm0-7.3h-2.3v1h2.3zm0-7.4h-2.3v1h2.3zm0-7.3h-2.3v1h2.3zm0-7.4h-2.3v1h2.3zm0-7.4h-2.3v1h2.3zm-6.7 51.6h-2.3v1h2.3zm0-7.4h-2.3v1h2.3zm0-7.4h-2.3v1h2.3zm0-7.3h-2.3v1h2.3zm0-7.4h-2.3v1h2.3zm0-7.3h-2.3v1h2.3zm0-7.4h-2.3v1h2.3zm0-7.4h-2.3v1h2.3zm-1.07 57.05h6.5v-3.45h-6.5zm0-6.4h6.5v-4.5h-6.5zm0-7.29h6.5v-4.6h-6.5zm0-7.24h6.5v-4.8h-6.5z" fill="#ffd2bd"/>
<path d="m500.76 342.17v19h2.6v-19zm-77.96 221.83h-2.4v15.4h2.4zm0 17.4h-2.4v11h2.4zm0 12.8h-2.4v9.5h2.4zm0 11.1h-2.4v7.6h2.4zm0 9.1h-2.4v5.9h2.4zm0 7.3h-2.4v4.1h2.4zm0 5.6h-2.4v2.7h2.4zm1.58 2.7h2.4v-15.4h-2.4zm0-17.47h2.4v-11h-2.4zm0-12.9h2.4v-9.5h-2.4zm0-10.96h2.4v-7.6h-2.4zm0-9.09h2.4v-5.9h-2.4zm0-7.33h2.4v-4.1h-2.4zm0-5.6h2.4v-2.65h-2.4zm6.22-2.75h-2.4v15.4h2.4zm0 17.4h-2.4v11h2.4zm0 12.8h-2.4v9.5h2.4zm0 11h-2.4v7.6h2.4zm0 9.2h-2.4v5.9h2.4zm0 7.3h-2.4v4.1h2.4zm0 5.6h-2.4v2.7h2.4zm1.56 2.6h2.4v-15.4h-2.4zm0-17.42h2.4v-11h-2.4zm0-12.81h2.4v-9.5h-2.4zm0-11.06h2.4v-7.6h-2.4zm0-9.09h2.4v-5.9h-2.4zm0-7.33h2.4v-4.09h-2.4zm0-5.59h2.4v-2.7h-2.4zm6.24-2.6h-2.4v15.4h2.4zm0 17.4h-2.4v11h2.4zm0 12.9h-2.4v9.5h2.4zm0 11h-2.4v7.6h2.4zm0 9.1h-2.4v5.9h2.4zm0 7.3h-2.4v4.1h2.4zm0 5.6h-2.4v2.7h2.4zm1.53 2.52h2.4v-15.4h-2.4zm0-17.43h2.4v-11h-2.4zm0-12.8h2.4v-9.49h-2.4zm0-10.97h2.4v-7.6h-2.4zm0-9.18h2.4v-5.9h-2.4zm0-7.34h2.4v-4.1h-2.4zm0-5.59h2.4v-2.7h-2.4zm-72.73 65.79-63.8-0.4v0.4h3.7l4.7 5a6.77 6.77 0 0 1 4.6-1.8 6.7 6.7 0 0 1 6.7 6.7 6.49 6.49 0 0 1-2.1 4.8l3.8 4.1 60.2 0.1z" fill="#ffd2bd"/>
<path d="M316.4 648.7a6.77 6.77 0 004.6-1.8l-9.3-9.8a6.49 6.49 0 00-2.1 4.8 6.87 6.87 0 006.8 6.8zM457.8 369.1h-1v104h1z" fill="#ffd2bd"/>
<path d="M494.5 472.1H359.7v1h134.8zM175 463.9l-76.1-76.5v-24.9l76.2 79.5zM99.9 387l74.1 74.5.1-19.1L99.9 365zM332 592.3l3.9-3.8a.19.19 0 01.3 0l19.2 20.1a.19.19 0 010 .3l-3.9 3.8a.19.19 0 01-.3 0L332 592.6a.19.19 0 010-.3zM360.2 613.1l-4.6 4.4c-.2.2-.2.4 0 .4l4.5.1c.2 0 .3-.2.4-.3l.1-4.5a.25.25 0 00-.4-.1zM353.1 617.8l-.7-.7 7.5-7.1.7.7zM315.5 566.6l-4.6 4.4c-.2.2-.4.1-.4 0l.1-4.5c0-.2.2-.3.4-.3l4.5.1c.2-.1.2.1 0 .3zM311.2 574.2l-.7-.8 7.5-7.1.7.7z" fill="#ffd2bd"/>
<path d="M313.09 561.15l-.71.7 60.17 61 .72-.7z" fill="#ffd2bd"/>
<path d="M391.2 385.6v.32l.38-.32zM393.4 386.1v-.5h-.22c-.18.17-.35.34-.54.5zM359.5 352.8v.5h.5c.15-.17.31-.33.47-.5z" fill="none"/>
<path d="M359.5 353.3v-.5h.92a23.22 23.22 0 013.66-3.12 4.84 4.84 0 00-3.58-1.58 4.88 4.88 0 00-3.12 8.65 23.42 23.42 0 012.62-3.45z" fill="#ffd2bd"/>
<path d="M361.7 352.82l-.47.48h.47zM377.2 346.5a22 22 0 00-12.56 3.9 4.88 4.88 0 01-4.14 7.5 4.82 4.82 0 01-2.33-.62 22.19 22.19 0 0029.71 30.88 4.8 4.8 0 01-.58-2.26 4.89 4.89 0 017.73-4 22.19 22.19 0 00-17.83-35.4z" fill="none"/>
<path d="M361.7 353.3h-.47a21.84 21.84 0 00-3.06 4 4.82 4.82 0 002.33.62 4.88 4.88 0 004.14-7.5 22 22 0 00-2.94 2.42zM377.2 345.6a23.05 23.05 0 00-13.12 4.08 4.34 4.34 0 01.56.72 22 22 0 0112.56-3.9 22.19 22.19 0 0117.8 35.41 4.9 4.9 0 01.79.72 23.19 23.19 0 00-18.62-37z" fill="#ffd2bd"/>
<path d="M355 368.7a22.11 22.11 0 013.17-11.42 4.74 4.74 0 01-.79-.53 23.19 23.19 0 0031.11 32.31 4.32 4.32 0 01-.61-.9A22.2 22.2 0 01355 368.7zM360.42 352.8h1.28a22 22 0 012.94-2.42 4.34 4.34 0 00-.56-.72 23.22 23.22 0 00-3.66 3.14z" fill="#ffd2bd"/>
<path d="M361.23 353.3H360a23.42 23.42 0 00-2.57 3.45 4.74 4.74 0 00.79.53 21.84 21.84 0 013.01-3.98zM391.58 385.6a22.33 22.33 0 003.45-3.69 4.87 4.87 0 00-7.15 6.25 22.19 22.19 0 003.32-2.24v-.32zM393.18 385.6h.22v.5h-.76a23.35 23.35 0 01-4.15 3 4.88 4.88 0 107.33-6.43 23.26 23.26 0 01-2.64 2.93z" fill="#ffd2bd"/>
<path d="M391.2 386.1v-.18a22.19 22.19 0 01-3.32 2.24 4.32 4.32 0 00.61.9 23.35 23.35 0 004.15-3zM395 381.91a22.33 22.33 0 01-3.45 3.69h1.6a23.26 23.26 0 002.64-3 4.9 4.9 0 00-.79-.69zM510.2 369.2h-1v279.9h1zM208.2 317.2H60.9v1h147.3zM464.6 461.8h.3v-37.2h-1V462a1.85 1.85 0 01.7-.2zM464.3 464.8a.6.6 0 01-.4-.1v3.2h1v-3.2c-.2 0-.4.1-.6.1z" fill="#ffd2bd"/>
<path d="M467.9 465.1H461v-3.8h6.9zm-5.9-1h4.9v-1.8H462z" fill="#ffd2bd"/>
<path d="M466.1 461.7h-.5v2.9h.5zM464.4 461.9h-.5v2.9h.5zM471.9 450.9h.2v-26.4h-1v26.6a2.35 2.35 0 01.8-.2zM471.6 453.9a.9.9 0 01-.5-.1v14.1h1v-14.1a.75.75 0 01-.5.1z" fill="#ffd2bd"/>
<path d="m475.1 454.4h-6.9v-3.8h6.9zm-5.9-1h4.9v-1.8h-4.9z" fill="#ffd2bd"/>
<path d="M473.3 451h-.5v2.9h.5zM471.7 451.2h-.5v2.9h.5zM486.3 429.5h.3v-5h-1v5.1c.2 0 .5-.1.7-.1zM486 432.5a.6.6 0 01-.4-.1v35.5h1v-35.5a1.27 1.27 0 01-.6.1z" fill="#ffd2bd"/>
<path d="m489.6 433h-6.9v-3.8h6.9zm-5.9-1h4.9v-1.8h-4.9z" fill="#ffd2bd"/>
<path d="M487.8 429.6h-.5v2.9h.5zM486.1 429.7h-.5v2.9h.5zM479.3 440.3h.1v-15.7h-1v15.9a2 2 0 01.9-.2zM479 443.3a1.27 1.27 0 01-.6-.1V468h1v-24.7c-.1-.1-.3 0-.4 0z" fill="#ffd2bd"/>
<path d="m482.3 443.7h-6.9v-3.8h6.9zm-5.8-1h4.9v-1.8h-4.9z" fill="#ffd2bd"/>
<path d="m477.7 440.4h-0.5v2.9h0.5zm1.7-0.1h-0.5v2.9h0.5zm7.1-22.9h-22.8v-1h21.8v-40.4h1z" fill="#ffd2bd"/>
<path d="M478.8 413.5a3.33 3.33 0 01-3.3-3.3v-20.1a2.3 2.3 0 00-4.6 0v6.1a3.33 3.33 0 01-3.3 3.3v-1a2.26 2.26 0 002.3-2.3v-6.1a3.3 3.3 0 016.6 0v20.1a2.3 2.3 0 004.6 0V393a3.33 3.33 0 013.3-3.3v1a2.26 2.26 0 00-2.3 2.3v17.2a3.27 3.27 0 01-3.3 3.3zM467.6 369.3h-10.4v32.5l1.9-1.6s7.3-9.1 8.3-16.8a58.26 58.26 0 00.6-11.8zM447.7 336.4h-27.8v-27.8h27.8zm-26.7-1h25.8v-25.8H421z" fill="#ffd2bd"/>
<path d="m422.2 308.1h-3v3h3z" fill="#ffd2bd"/>
<path d="m422.7 311.6h-4v-4h4zm-3-1h2v-2h-2zm28.8-2.5h-3v3h3z" fill="#ffd2bd"/>
<path d="m449 311.6h-4v-4h4zm-3-1h2v-2h-2zm-23.8 23.7h-3v3h3z" fill="#ffd2bd"/>
<path d="m422.7 337.8h-4v-4h4zm-3-1h2v-2h-2zm28.8-2.5h-3v3h3z" fill="#ffd2bd"/>
<path d="m449 337.8h-4v-4h4zm-3-1h2v-2h-2zm7.3 111.9h-37.6v-6.7h37.6zm-36.6-1h35.6v-4.7h-35.6zm17.3 4h-7.3v5.7h7.3z" fill="#ffd2bd"/>
<path d="m434.5 457.8h-8.3v-6.7h8.3zm-7.3-1h6.3v-4.7h-6.3zm-3.2 0.9h-8.3v-6.7h8.3zm-7.3-1h6.3v-4.7h-6.3zm36.6 1.2h-16.5v-6.7h16.5zm-15.5-1h14.5v-4.7h-14.5zm4.9 10.1h-8.3v-6.7h8.3zm-7.3-1h6.3v-4.7h-6.3zm10.04 0.55h7.3v-5.7h-7.3z" fill="#ffd2bd"/>
<path d="m453.3 467.1h-8.3v-6.7h8.3zm-7.3-1h6.3v-4.7h-6.3zm-29.82 0.32h15.5v-5.7h-15.5z" fill="#ffd2bd"/>
<path d="M432.2 466.9h-16.5v-6.7h16.5zm-15.5-1h14.5v-4.7h-14.5zM457 627a8 8 0 01-8-8v-45.2a8 8 0 0116 0v45.3a8 8 0 01-8 7.9zm0-60.2a7 7 0 00-7 7v45.3a7 7 0 0014 0v-45.3a7 7 0 00-7-7zM124.5 666.9H43.9V587l-29.8-30.2v-81.7h1v81.3l28.8 29.1v-110h1v111zm-79.6-1h77.2L44.9 588zM371.5 88.1h-19.9L371.7 68v1.2c.6 18.2.2 18.6.1 18.8l-.1.2zm-17.4-1h17c.1-1.9-.1-10.6-.2-16.7zM350.4 66.6H369L350.6 85s-.6-18.4-.2-18.4zM88.5 355.1l-14.6-15.2v23.5l14.6 14.7z" fill="#ffd2bd"/>
<path d="M70.8 644.3H49.1V623h3v18.3h18.7z" fill="#ffd2bd"/>
<path d="M69.2 638.8h-3v-11.2H54.9v-3h14.3z" fill="#ffd2bd"/>
<path d="M69.76 621.71l-20.15 20.16 2.12 2.13 20.15-20.16zM50.6 624.6H47v3h3.6zM69.2 642.8h-3v3.6h3zM499.13 633.29l-8.7 8.7.71.7 8.69-8.69z" fill="#ffd2bd"/>
<path d="M500.5 635.3l-2.7-2.7 3.7-1zm-.8-2.1l.3.3.1-.3zM488.7 644.5l1-3.7 2.7 2.7zm1.5-1.8l-.1.3.3-.1zM491.06 633.39l-.71.71 8.7 8.7.7-.71z" fill="#ffd2bd"/>
<path d="M501.5 644.5l-3.7-1 2.7-2.7zm-1.8-1.5l.3.1-.1-.3zM489.7 635.3l-1-3.7 3.7 1zm.4-2.2l.1.3.3-.3zM308.1 248.9a9.1 9.1 0 10-9.1-9.1 9.09 9.09 0 009.1 9.1z" fill="#ffd2bd"/>
<path d="M302.1 233l12 13.6a9 9 0 00.7-12.8 8.92 8.92 0 00-12.7-.8z" fill="#ffd2bd"/>
</svg>
