<?xml version="1.0" encoding="UTF-8"?>
<svg viewBox="0 0 113.57 94.86" xmlns="http://www.w3.org/2000/svg">
<path d="M33.68 27.82v-7.07h9L50.46 22l.54-1.36L44.71 16l-6.4-6.4 5-5 6.4 6.29 4.64 6.4 1.32-.55-1.24-7.8V0h7.06v8.94l-1.21 7.84 1.32.55 4.64-6.4 6.4-6.29 5 5L71.32 16l-6.4 4.63.55 1.37 7.73-1.22h9v7.07h-9l-7.73-1.25-.55 1.33 6.4 4.63L77.61 39l-5 5-6.4-6.41-4.64-6.4-1.32.55 1.21 7.84v8.94h-7.03v-9l1.21-7.84-1.32-.55-4.64 6.4-6.4 6.41-5-5 6.4-6.41 6.32-4.6-.55-1.33-7.73 1.22zM0 74.22v-7.06h9.05l7.73 1.21.55-1.32L11 62.41 4.64 56l5-5L16 57.33l4.63 6.4 1.37-.55-1.22-7.84V46.4h7.07v8.94l-1.25 7.84 1.33.55 4.63-6.4L39 51l5 5-6.29 6.4-6.4 4.64.55 1.32 7.73-1.21h9v7.06h-9L31.79 73l-.55 1.32 6.4 4.68 6.29 6.4-5 5-6.41-6.4-4.63-6.41-1.33.56 1.22 7.83v8.94h-7.03v-9L22 78.09l-1.33-.56L16 83.94l-6.4 6.4-5-5L11 79l6.29-4.64-.51-1.36-7.73 1.22zM65 74.22v-7.06h9l7.73 1.21.55-1.32L76 62.41 69.64 56l5-5L81 57.33l4.63 6.4 1.37-.55-1.22-7.84V46.4h7.07v8.94l-1.25 7.84 1.33.55 4.63-6.4L104 51l5 5-6.29 6.4-6.4 4.64.55 1.32 7.73-1.21h9v7.06h-9L96.79 73l-.55 1.32 6.4 4.64 6.29 6.4-5 5-6.41-6.4-4.63-6.41-1.33.56 1.22 7.83v8.94h-7.03v-8.96L87 78.09l-1.33-.56L81 83.94l-6.41 6.4-5-5L76 79l6.29-4.64-.51-1.36-7.73 1.21z" fill="#171691"/>
</svg>
