<?xml version="1.0" encoding="UTF-8"?>
<svg viewBox="0 0 455.6 62.81" xmlns="http://www.w3.org/2000/svg">
<path d="M7.08 49.06L0 1h7.42l5.77 43.09h1.1L21.71 1h13l7.42 43.09h1.1L48.93 1h7.42l-7.08 48.1h-13L28.72 5.36h-1.1l-7.49 43.7zM78.13 50a18.11 18.11 0 01-9-2.17 15.24 15.24 0 01-6-6.11A18.76 18.76 0 0161 32.57v-.82a19.23 19.23 0 012.13-9.25 15.09 15.09 0 016-6.11 17.59 17.59 0 018.83-2.17 16.57 16.57 0 018.55 2.17 15.1 15.1 0 015.74 6 18.86 18.86 0 012.06 9v2.68h-26a9.69 9.69 0 003 7.12 10.06 10.06 0 007.11 2.64c2.66 0 4.66-.59 6-1.79a12.57 12.57 0 003.13-4.12l5.84 3a20.57 20.57 0 01-2.78 4 14.65 14.65 0 01-4.78 3.57 17.26 17.26 0 01-7.7 1.51zm-9.89-21.34H87a8.46 8.46 0 00-2.75-6 9.48 9.48 0 00-6.46-2.16 9.62 9.62 0 00-6.5 2.16 9.36 9.36 0 00-3.05 6zM121.7 50q-5 0-7.59-1.79a12.57 12.57 0 01-4-4h-1.1v4.81h-6.94V1h7.07v18.79h1.1a11.78 11.78 0 012.2-2.64 10.67 10.67 0 013.64-2.1 16.43 16.43 0 015.57-.83 15.33 15.33 0 017.83 2.07 14.89 14.89 0 015.71 6 19.33 19.33 0 012.13 9.35v1A18.91 18.91 0 01135.2 42a15.1 15.1 0 01-13.5 8zm-2.06-6.19a10.33 10.33 0 007.59-3q3-3 3-8.46v-.61q0-5.43-3-8.39a11.21 11.21 0 00-15.16 0q-3 3-3 8.39v.61q0 5.51 3 8.46a10.27 10.27 0 007.57 3.03zM161.21 50a22 22 0 01-9.41-1.93 14.87 14.87 0 01-6.43-5.56 15.93 15.93 0 01-2.3-8.66v-1.21h7.22v1.1a9.1 9.1 0 003 7.18 11.53 11.53 0 007.94 2.65q4.95 0 7.7-2.48a8.05 8.05 0 002.75-6.25v-.62a6.77 6.77 0 00-1.31-4.33 7.68 7.68 0 00-3.5-2.44 14.77 14.77 0 00-4.95-.79h-8.73v-8.31l16.91-10v-1h-25.86V1h33.67v9.76l-16.15 9.62v1h3a17.35 17.35 0 016.87 1.38 12.2 12.2 0 015.25 4.19 11.87 11.87 0 012 7.14v.83a14.41 14.41 0 01-2.2 8 14.66 14.66 0 01-6.18 5.29 21.45 21.45 0 01-9.29 1.79zM190.83 50a5.51 5.51 0 01-4-1.58 5.44 5.44 0 01-1.62-4.06 5.3 5.3 0 011.62-4 5.56 5.56 0 014-1.54 5.5 5.5 0 014 1.58 5.35 5.35 0 011.61 4 5.47 5.47 0 01-1.61 4.06 5.54 5.54 0 01-4 1.54zM221.06 50a22.88 22.88 0 01-9.62-1.93 14.94 14.94 0 01-6.56-5.67 16.66 16.66 0 01-2.37-9.1v-1.69h7.35v1.72q0 5.09 3.06 7.63a12.35 12.35 0 008.14 2.54q5.16 0 7.77-2.17a6.93 6.93 0 002.61-5.6A5.47 5.47 0 00230.2 32a8.39 8.39 0 00-3.5-2.3 44.79 44.79 0 00-5.43-1.61l-2.54-.62a41.16 41.16 0 01-8-2.72 13 13 0 01-5.26-4.29 11.87 11.87 0 01-1.85-6.87 12.48 12.48 0 012.1-7.29 13.58 13.58 0 015.8-4.67A21.35 21.35 0 01220.24 0a22.25 22.25 0 019 1.72 14.12 14.12 0 016.22 5.08 14.86 14.86 0 012.26 8.46v2.47h-7.35v-2.47a8.92 8.92 0 00-1.27-5 7.42 7.42 0 00-3.54-2.82 14.51 14.51 0 00-5.29-.89 11.28 11.28 0 00-6.84 1.82A6 6 0 00211 13.4a5.82 5.82 0 001 3.6 7.62 7.62 0 003.12 2.3 29 29 0 005.16 1.58l2.54.62a43 43 0 018.25 2.64 14.18 14.18 0 015.63 4.37 11.44 11.44 0 012.06 7.08 13.25 13.25 0 01-2.16 7.55 14.41 14.41 0 01-6.15 5.06 22.58 22.58 0 01-9.39 1.8zM258.86 49.06a6.58 6.58 0 01-4.92-1.85 6.79 6.79 0 01-1.82-5V21.17h-9.34v-6h9.34V4h7.08v11.2h10.1v6h-10.1V41q0 2.07 1.92 2.07h7.08v6zM291.64 50a19 19 0 01-9-2.1 15.37 15.37 0 01-6.22-6 18.23 18.23 0 01-2.27-9.28v-1a18 18 0 012.27-9.24 15.73 15.73 0 016.22-6 18.86 18.86 0 019-2.13 19.06 19.06 0 019.07 2.13 15.74 15.74 0 016.25 6 18 18 0 012.27 9.24v1a18.23 18.23 0 01-2.23 9.3 15.39 15.39 0 01-6.25 6 19.17 19.17 0 01-9.11 2.08zm0-6.33a10.12 10.12 0 007.59-3q2.92-3 2.92-8.28v-.61q0-5.3-2.89-8.28a11.09 11.09 0 00-15.15 0q-2.92 3-2.92 8.28v.61q0 5.3 2.92 8.28a10 10 0 007.53 3.03zM317.41 49.06V15.19h6.94v4h1.1a5.78 5.78 0 012.64-3.12 9.21 9.21 0 014.5-1h4.06v6.39h-4.33a8.36 8.36 0 00-5.64 1.89c-1.46 1.26-2.2 3.19-2.2 5.81v19.9zM352.93 50a16.22 16.22 0 01-6.49-1.24 10.57 10.57 0 01-4.54-3.64 10 10 0 01-1.68-5.84 9.61 9.61 0 011.68-5.81 10.23 10.23 0 014.61-3.47 17.66 17.66 0 016.63-1.17h10.31v-2.2a6.41 6.41 0 00-1.79-4.74q-1.79-1.79-5.5-1.79a8.1 8.1 0 00-5.56 1.72 8.22 8.22 0 00-2.55 4.47l-6.59-2.13a14.4 14.4 0 012.64-5 13.11 13.11 0 014.9-3.56 17.42 17.42 0 017.28-1.38q6.6 0 10.38 3.37t3.78 9.55v14c0 1.38.64 2.06 1.92 2.06h2.89v5.91h-5.29a6 6 0 01-3.96-1.28 4.12 4.12 0 01-1.51-3.37v-.21h-1a16.87 16.87 0 01-1.65 2.41 8.81 8.81 0 01-3.27 2.34 13.5 13.5 0 01-5.64 1zm1-5.84a9.68 9.68 0 006.87-2.44 8.7 8.7 0 002.62-6.7v-.69h-9.9a7.79 7.79 0 00-4.54 1.2 4 4 0 00-1.71 3.54 4.43 4.43 0 001.78 3.71 7.8 7.8 0 004.95 1.41zM379 32.3v-1a18.13 18.13 0 012.16-9.14 15.39 15.39 0 0113.57-7.91q4.95 0 7.6 1.86a13.12 13.12 0 013.88 4h1.1v-4.92h6.87V56a6.75 6.75 0 01-1.82 5 6.67 6.67 0 01-5 1.86h-22.82v-6.24h20.62c1.33 0 2-.68 2-2.06V43.77h-1.1a12.4 12.4 0 01-2.13 2.55 10.43 10.43 0 01-3.61 2.13 16.31 16.31 0 01-5.6.82 15.83 15.83 0 01-7.87-2 14.84 14.84 0 01-5.73-5.84A18.36 18.36 0 01379 32.3zm17.66 10.79a10.43 10.43 0 007.59-2.92 10.79 10.79 0 003-8.08v-.62c0-3.52-1-6.24-3-8.14a11.49 11.49 0 00-15.15 0c-2 1.9-3 4.62-3 8.14v.62a10.79 10.79 0 003 8.08 10.37 10.37 0 007.54 2.92zM439.52 50a18.12 18.12 0 01-9-2.17 15.3 15.3 0 01-6-6.11 18.87 18.87 0 01-2.16-9.18v-.82a19.23 19.23 0 012.13-9.25 15.13 15.13 0 015.94-6.11 17.62 17.62 0 018.83-2.17 16.6 16.6 0 018.56 2.17 15.17 15.17 0 015.74 6 18.86 18.86 0 012.06 9v2.68h-26.07a9.69 9.69 0 003 7.12 10.06 10.06 0 007.11 2.64c2.66 0 4.67-.59 6-1.79a12.54 12.54 0 003.12-4.12l5.84 3a20.57 20.57 0 01-2.78 4 14.6 14.6 0 01-4.77 3.57 17.29 17.29 0 01-7.55 1.54zm-9.9-21.37h18.76a8.42 8.42 0 00-2.75-6 9.46 9.46 0 00-6.46-2.16 9.6 9.6 0 00-6.49 2.16 9.42 9.42 0 00-3.06 6.03z" fill="#171044"/>
</svg>
